<?xml version="1.0" encoding="utf-8"?>
<!-- Generator: Adobe Illustrator 23.0.3, SVG Export Plug-In . SVG Version: 6.00 Build 0)  -->
<svg version="1.1" id="Layer_1" xmlns="http://www.w3.org/2000/svg" xmlns:xlink="http://www.w3.org/1999/xlink" x="0px" y="0px"
	 viewBox="0 0 102 87" style="enable-background:new 0 0 102 87;" xml:space="preserve">
<style type="text/css">
	.st0{clip-path:url(#SVGID_2_);fill:#FFFFFF;}
	.st1{fill:#FFFFFF;}
</style>
<g>
	<defs>
		<rect id="SVGID_1_" x="2" y="2.2" width="116" height="84.8"/>
	</defs>
	<clipPath id="SVGID_2_">
		<use xlink:href="#SVGID_1_"  style="overflow:visible;"/>
	</clipPath>
	<rect x="2" y="30.5" class="st0" width="113" height="56.5"/>
	<circle class="st0" cx="42.1" cy="48.3" r="48.3"/>
</g>
<path class="st1" d="M115,30.5h-12.8c-8.4,0-16.2-4.1-21.2-10.8C71.9,7.3,57.1-0.5,40.4,0C25.4,0.5,11.9,8.1,3.4,19.5
	C-2,26-13,25-13,25s7.1,13.5,6.8,21.3c-0.4,10.8,2.6,20.8,8.2,29V87h11.1c8.1,6.1,18.1,9.7,29,9.7c10.9,0,20.9-3.6,29-9.7H115V30.5z
	"/>
</svg>
