<?xml version="1.0" encoding="utf-8"?>
<!-- Generator: Adobe Illustrator 23.0.3, SVG Export Plug-In . SVG Version: 6.00 Build 0)  -->
<svg version="1.1" id="Layer_1" xmlns="http://www.w3.org/2000/svg" xmlns:xlink="http://www.w3.org/1999/xlink" x="0px" y="0px"
	 viewBox="0 0 330.4 574" style="enable-background:new 0 0 330.4 574;" xml:space="preserve">
<style type="text/css">
	.st0{enable-background:new    ;}
	.st1{clip-path:url(#SVGID_2_);}
	.st2{fill:#1D0E46;}
	.st3{fill:#0080C8;}
	.st4{fill:#840047;}
	.st5{fill:#A9D0EC;}
	.st6{fill:#64C2C8;}
	.st7{fill:#1C6587;}
</style>
<g>
	<g>
		<g class="st0">
			<g>
				<g>
					<g>
						<defs>
							<path id="SVGID_1_" d="M206.3,320.6c-4.1,1.1-9.6,2.2-13.8,3c-4.4,0.7-10.2,1.4-14.7,1.8c-3.6,0.3-8.4,0.4-12.1,0.5
								c-3.3,0-7.8-0.2-11.1-0.3c-5.1-0.2-12.1-1-17.1-2c-4.1-0.9-9.6-1.9-13.6-2.9c-3.6-1-8.5-2.5-12.1-3.6
								c-2.7-0.9-12.4-4.3-23.9-10.3c-3.5-1.8-8-4.5-11.3-6.6c-3.3-2.1-7.5-5.1-10.6-7.4c-7.9-5.4-22.1-19.2-28.3-27.3
								c-4.8-6.4-11.1-15.2-15.1-22.2c-3.9-7-8.2-17-11.3-24.4c-3.7-9.1-8.3-28.6-9.1-39c-0.5-7.8-1.1-18.2-0.5-26.1
								c0.5-8.6,1.7-17.4,3.6-25.9s4.5-16.8,7.8-25c1.4-3.5,3.4-8.1,5.1-11.4c1.8-3.7,4.5-8.6,6.6-12.2c1.8-3,4.4-6.9,6.4-9.8
								c2.7-3.7,6.5-8.6,9.5-12.2c1.6-1.9,3.8-4.5,5.7-6.3c3.5-3.5,8.4-8.1,12.2-11.5c0.1-0.1,7.8-6.8,17.9-13.3
								c2.8-1.7,9.9-6.4,20.4-11.1c4.6-2.1,8.6-3.6,11.1-4.6c5.1-1.9,8.5-2.9,11.7-3.8c7.8-2.3,17.6-4.2,21.2-4.6
								c5.1-0.6,12.1-1.3,17.3-1.6c2.7-0.2,6.3-0.1,9-0.1c11.3,0.1,19.8,1.5,25.5,2.3c4.8,0.7,11.1,2.1,15.8,3.5
								c3.9,1.2,9.2,2.8,13.1,4.2c3.5,1.3,8.2,3.1,11.6,4.8c3.5,1.7,8.3,4.1,11.7,5.9c3.3,1.8,7.7,4.5,10.8,6.5
								c10.7,7,18.1,13.9,20.2,15.8c4.6,4.4,10.7,10.1,17.6,18.9c6.1,7.7,9,12.3,14.6,21.9c4.8,8.2,8,16.4,11.1,24.4
								c2,5.1,3.9,12.4,5.2,17.7c3.3,14.1,3.8,25.3,3.8,25.4c0.1,3.8,0.5,9,0.4,12.7c-0.3,7.6-1,17.6-2.1,25.1
								c-2.1,13.3-6,24.5-6.1,24.6c-2.6,6.9-6.4,16-9.5,22.7c-1.6,3.4-4.2,7.8-6.2,11.1c-16.4,27-36.2,41.7-43.6,47.2
								c-1.5,1.2-5.8,4.2-12.1,7.9c-5.4,3.3-10.7,5.9-12.3,6.6c-1.2,0.5-2.5,1.2-3.6,1.7c-1.6,0.7-2.6,1.1-3.7,1.7
								c-1.8,0.7-5.1,2.1-6.5,2.6c-2.9,1.1-4.8,1.8-8.4,2.9C210.1,319.6,206.3,320.6,206.3,320.6z"/>
						</defs>
						<clipPath id="SVGID_2_">
							<use xlink:href="#SVGID_1_"  style="overflow:visible;"/>
						</clipPath>
						<g class="st1">
							<path class="st2" d="M85,21.3c0.3-0.2,0.5-0.4,0.9-0.6s0.6-0.4,0.9-0.6s0.6-0.4,1-0.5c0.3-0.2,0.6-0.3,1-0.5L88,19.3
								c-0.9,0.4-2,1.1-2.9,1.6c-0.1,0.1-0.2,0.2-0.3,0.3C84.9,21.2,85,21.3,85,21.3"/>
							<path class="st3" d="M85,21.3c0.3-0.2,0.5-0.4,0.9-0.6s0.6-0.4,0.9-0.6s0.6-0.4,1-0.5c0.3-0.2,0.6-0.3,1-0.5
								c1.2-0.6,2.8-1.4,3.9-2l0.2-0.1C88.2,19.3,88.1,19.4,85,21.3"/>
							<path class="st2" d="M117,7.6c-0.4,0.1-0.7,0.1-1.2,0.2c-0.4,0.1-0.7,0.2-1.2,0.2c-0.3,0.1-0.7,0.2-1.1,0.3
								c-0.3,0.1-0.7,0.2-1.1,0.3l-1.9,0.6l-2.5,0.9C110.7,9.4,114.3,8.3,117,7.6"/>
							<path class="st3" d="M117,7.6c-0.4,0.1-0.7,0.1-1.2,0.2c-0.4,0.1-0.7,0.2-1.2,0.2c-0.3,0.1-0.7,0.2-1.1,0.3
								c-0.3,0.1-0.7,0.2-1.1,0.3c1.1-0.3,2.5-0.9,3.5-1.2c0.2,0,0.5-0.1,0.9-0.1C116.9,7.5,117,7.6,117,7.6"/>
							<path class="st4" d="M4.5,193.3c-1.1-9.4-1.3-10.6,0.1-21.6c-2.7-6.7-2.8-7-3-13.2c0.1,6.4,0.3,14.8,0.7,21.1
								C3,183.6,3.6,189.3,4.5,193.3"/>
							<path class="st2" d="M25.4,240.2c-0.5-0.9-1-1.7-1.4-2.7c-0.4-1-1-1.8-1.4-2.7c-0.4-0.9-0.9-1.8-1.4-2.7
								c-0.4-1-0.9-1.8-1.3-2.8c-0.2-0.4-0.3-0.7-0.5-1.2c-0.2-0.4-0.3-0.7-0.5-1.2s-0.3-0.7-0.5-1.2c-0.2-0.4-0.3-0.7-0.5-1.2
								c-6.5-7.8-6.5-7.8-9.7-16.2c1.6,4.6,3.5,10.8,5.3,15.2C17.9,232.6,18,232.7,25.4,240.2 M14.4,216.1
								c-1.4-3.6-2.6-7.4-3.6-11.1c-1.1-3.7-2-7.4-2.9-11.1c-0.9-3.7-1.5-7.5-2-11.1c-0.5-3.7-1-7.5-1.3-11.1
								c-1.1,9.3-1.4,11.8-0.1,21.6l1.5,6.8C8.8,208.6,8.8,208.7,14.4,216.1"/>
							<path class="st5" d="M4.6,171.7c2.5-10.9,3.6-15.9,10.3-30.2c-4.7-4.5-6.9-6.6-8.1-13.2c-0.6,3.5-1.2,7-1.6,10.6
								c-0.4,3.6-0.7,7.1-1,10.8c-0.2,3.6-0.2,7.3-0.2,11C4.1,164.3,4.3,168,4.6,171.7 M18.3,135c2-3.6,4.8-8.4,7-11.9
								c-6.7-3.8-13.1-7.5-12.3-17.7c-0.4,1.2-0.9,2.5-1.2,3.6c-0.4,1.2-0.7,2.5-1.2,3.6c-0.3,1.2-0.7,2.5-1.1,3.7
								c-0.3,1.3-0.6,2.5-1,3.7C9.4,125,10.3,129.7,18.3,135"/>
							<path class="st6" d="M19.9,186.4c-1-3.8-1.7-7.6-2.3-11.4c-0.6-3.7-1.2-7.6-1.6-11.3c-0.4-3.7-0.7-7.5-0.9-11.2
								c-0.2-3.7-0.2-7.4-0.1-11c-5.4,12.1-7.9,17.6-10.3,30.2C8.7,177.8,10.5,180.6,19.9,186.4 M35,193.1c-1.9-6-3.6-12.1-5-18
								c-1.4-6-2.5-11.9-3.3-17.8c-0.9-5.9-1.3-11.7-1.6-17.4c-0.2-5.7-0.2-11.3,0.1-16.8c-2.1,3.6-5,8.3-7,11.9
								c-0.1,4.4-0.1,8.7,0.1,13.1c0.2,4.5,0.5,9,1.1,13.4c0.5,4.5,1.3,9.1,2.1,13.6c0.9,4.6,1.9,9.2,3.2,13.8
								C27.7,190.2,31.8,192.1,35,193.1"/>
							<path class="st7" d="M8.7,120.1c-3.6,10.5-3.8,11.1-5.1,18.2l2-10.8l1.5-6.2c3.1-9.6,3.2-10,6-16c-0.4,1.2-0.9,2.5-1.2,3.6
								c-0.4,1.2-0.7,2.5-1.2,3.6c-0.3,1.2-0.7,2.5-1.1,3.7S9,118.8,8.7,120.1"/>
							<path class="st7" d="M4.6,171.7c-2.7-6.7-2.8-7-3-13.2l0.2-5.1l0.4-5.8c1.6-10,1.6-10.7,4.5-19.3c-0.6,3.5-1.2,7-1.6,10.6
								c-0.4,3.6-0.7,7.1-1,10.8c-0.2,3.6-0.2,7.3-0.2,11C4.1,164.3,4.3,168,4.6,171.7"/>
							<path class="st3" d="M14.4,216.1c-1.4-3.6-2.6-7.4-3.6-11.1c-1.1-3.7-2-7.4-2.9-11.1c-0.9-3.7-1.5-7.5-2-11.1
								c-0.5-3.7-1-7.5-1.3-11.1c4.1,6.1,5.9,9,15.4,14.7C16.1,198.5,14.4,204,14.4,216.1"/>
							<path class="st3" d="M25.4,240.2c-0.5-0.9-1-1.7-1.4-2.7c-0.4-1-1-1.8-1.4-2.7c-0.4-0.9-0.9-1.8-1.4-2.7
								c-0.4-1-0.9-1.8-1.3-2.8c-0.2-0.4-0.3-0.7-0.5-1.2c-0.2-0.4-0.3-0.7-0.5-1.2s-0.3-0.7-0.5-1.2c-0.2-0.4-0.3-0.7-0.5-1.2
								c0-9.8,0-18.3,6.8-35.7c3.1,1.3,7.1,3.1,10.2,4.3C29.1,207.2,23.3,221.6,25.4,240.2"/>
							<path class="st4" d="M55.7,167.5c8-12.7,12.8-20.4,25.9-38.7c-14.2-2-22.1-3.2-34.8-6.1c0.3,3.5,0.7,7.1,1.3,10.9
								c0.5,3.6,1.2,7.4,1.9,11.1c0.7,3.7,1.6,7.6,2.6,11.3C53.6,159.9,54.5,163.7,55.7,167.5 M51.3,175.1
								c-1.4-4.7-2.7-9.3-3.8-13.9c-1.1-4.6-2.1-9.2-2.9-13.6c-0.9-4.5-1.5-9-2-13.3c-0.5-4.4-0.9-8.6-1.1-12.9
								c-2.6-0.9-6.1-1.8-8.6-2.8c-0.1,5.4,0,11,0.4,16.7c0.4,5.7,1.1,11.5,1.9,17.4c1,5.9,2.1,11.8,3.6,17.8
								c1.5,6,3.2,12.1,5.2,18.1C46.1,184.5,49,179,51.3,175.1"/>
							<path class="st2" d="M110.1,201.6c-0.5-1-1-2-1.5-3c-0.5-1-1-2-1.5-3s-1-2-1.4-3c-0.4-1-1-2-1.4-3c-0.2-0.4-0.4-0.9-0.6-1.3
								s-0.4-0.9-0.6-1.3c-0.2-0.4-0.4-0.9-0.6-1.3c-0.2-0.4-0.4-0.9-0.5-1.3c-17.1-2.6-33.2-4.9-50.7-9.2
								c-2.2,4.1-5.2,9.4-7.4,13.5C55.9,191.7,73.8,196.6,110.1,201.6 M97.8,174.9c-1.7-3.9-3.2-7.9-4.8-11.8
								c-1.5-3.9-3-7.8-4.3-11.6c-1.4-3.8-2.7-7.7-3.8-11.4c-1.2-3.7-2.3-7.5-3.3-11.2c-10.2,14.5-15.9,22.5-25.9,38.7
								C68.4,170.2,76.1,171.8,97.8,174.9"/>
							<path class="st5" d="M81.6,128.8c8.9-12.2,14.3-19.4,28.3-37.4c-17.9-1.4-24.7-2-36.9-3.5c0.4,3.1,0.9,6.3,1.5,9.6
								c0.5,3.3,1.2,6.6,1.9,10c0.7,3.4,1.5,6.9,2.5,10.5C79.6,121.6,80.5,125.1,81.6,128.8 M115.3,84.5c2.9-3.6,6.7-8.5,9.7-12.2
								c-24-1.4-38.5-2.1-53.6-3.9c0,1,0.1,2,0.1,3c0.1,1,0.1,2,0.2,3.1c0.1,1.1,0.1,2,0.2,3.1s0.2,2.1,0.3,3.2
								C84,82.1,90.7,82.8,115.3,84.5"/>
							<path class="st6" d="M126.4,133.7c-1.6-3.7-3.1-7.5-4.6-11.2c-1.5-3.6-2.9-7.3-4.3-10.8c-1.4-3.5-2.7-7-3.9-10.3
								c-1.3-3.3-2.5-6.7-3.6-9.9c-12.8,16.5-17.9,23-28.3,37.4C95,130.4,102.4,131.4,126.4,133.7 M154.2,136.4
								c-2.8-6-5.4-11.8-8.1-17.6c-2.6-5.8-5.1-11.3-7.6-16.6s-4.8-10.6-7-15.6c-2.2-4.9-4.5-9.7-6.5-14.3
								c-2.9,3.6-6.8,8.5-9.7,12.2c1.5,3.7,3,7.6,4.6,11.6c1.6,3.9,3.3,8.1,5,12.3c1.7,4.2,3.5,8.5,5.4,12.9
								c1.8,4.4,3.8,8.9,5.8,13.4C141.5,135.2,148.8,135.9,154.2,136.4"/>
							<path class="st7" d="M72.1,80.7c-9.5,11.7-19.3,23.9-30.7,40.6c-2.6-0.9-6.1-1.8-8.6-2.8c7.8-11.4,17.6-25.5,38.6-50.2
								c0,1,0.1,2,0.1,3c0,1,0.1,2,0.1,3.1c0.1,1.1,0.1,2,0.2,3.1C71.9,78.6,72,79.7,72.1,80.7"/>
							<path class="st7" d="M81.6,128.8c-14.2-2-22.1-3.2-34.8-6.1C55.2,111.1,60.2,104.1,73,88c0.4,3.1,0.9,6.3,1.5,9.6
								c0.5,3.3,1.2,6.6,1.9,10c0.7,3.4,1.5,6.9,2.5,10.5C79.6,121.6,80.5,125.1,81.6,128.8"/>
							<path class="st3" d="M97.8,174.9c-1.7-3.9-3.2-7.9-4.8-11.8c-1.5-3.9-3-7.8-4.3-11.6c-1.4-3.8-2.7-7.7-3.8-11.4
								c-1.2-3.7-2.3-7.5-3.3-11.2c13.3,1.7,20.8,2.6,44.8,4.9C114,151,108.6,158.7,97.8,174.9"/>
							<path class="st3" d="M110.1,201.6c-0.5-1-1-2-1.5-3c-0.5-1-1-2-1.5-3s-1-2-1.4-3c-0.4-1-1-2-1.4-3c-0.2-0.4-0.4-0.9-0.6-1.3
								s-0.4-0.9-0.6-1.3c-0.2-0.4-0.4-0.9-0.6-1.3c-0.2-0.4-0.4-0.9-0.5-1.3c9.8-14.9,16.3-24.8,34.1-49.6
								c5.4,0.5,12.8,1.2,18.2,1.7C138.9,158,127.8,173.7,110.1,201.6"/>
							<path class="st4" d="M184.6,107.6c11.7-16.7,16.1-23.1,24-35.4c-14.9-1.5-24-2.5-46.5-3.9c1.8,2.9,3.6,6,5.5,9.1
								c1.8,3.1,3.7,6.3,5.7,9.6c1.9,3.3,3.7,6.6,5.7,10.1C180.8,100.5,182.7,104,184.6,107.6 M179.2,115.3
								c-2.2-4.4-4.5-8.7-6.6-12.9c-2.2-4.2-4.4-8.3-6.6-12.3c-2.1-3.9-4.4-7.8-6.5-11.5c-2.1-3.7-4.3-7.3-6.3-10.8
								c-4.8-0.2-11.1-0.6-15.9-0.9c2.3,4.4,4.8,9.1,7.3,13.9c2.6,4.9,5.1,9.9,7.8,15.2c2.7,5.3,5.3,10.8,8.1,16.4
								s5.5,11.5,8.4,17.4C171.9,125.5,176.1,119.7,179.2,115.3"/>
							<path class="st2" d="M245.3,139.7c-0.4-1-0.9-2-1.3-3c-0.4-1-0.9-2-1.3-3c-0.4-1-0.9-2-1.3-3c-0.4-1-0.9-2-1.4-3
								c-0.2-0.4-0.4-0.9-0.6-1.3c-0.2-0.4-0.4-0.9-0.6-1.3c-0.2-0.4-0.4-0.9-0.6-1.3c-0.2-0.4-0.4-0.9-0.6-1.3
								c-16.8-2.6-29-4.5-58.5-7.4c-3.1,4.4-7.3,10.2-10.3,14.6C192.9,132.3,213.7,134.5,245.3,139.7 M233.2,113.6
								c-1.9-3.7-3.8-7.5-5.9-11.1s-4.1-7.1-6.1-10.6c-2-3.4-4.2-6.8-6.3-10.1s-4.3-6.5-6.4-9.6c-7.1,10.9-11,16.8-24,35.4
								C204.8,109.7,214.5,110.7,233.2,113.6"/>
							<path class="st5" d="M208.6,72.2c6.9-11.2,10.9-17.4,16-28.2c-13.9-1.7-22.3-2.8-42.5-4.2c2.2,2.2,4.5,4.7,6.7,7.1
								c2.2,2.5,4.5,5.1,6.7,7.8s4.5,5.5,6.6,8.4S206.5,69.1,208.6,72.2 M226.6,39.6c0.7-2.2,1.9-5.2,2.5-7.5
								c-12.7-2-28.5-4.5-61.9-5.5c0.7,0.6,1.6,1.3,2.3,1.9c0.9,0.6,1.6,1.4,2.3,2c0.9,0.6,1.6,1.4,2.5,2.1c0.9,0.7,1.6,1.5,2.5,2.2
								C191.2,35.7,207.5,36.7,226.6,39.6"/>
							<path class="st6" d="M253.1,78.9c-2.1-3.3-4.4-6.5-6.7-9.6c-2.2-3.1-4.6-6.1-7-9.1c-2.3-2.9-4.8-5.8-7.3-8.4
								c-2.5-2.7-4.9-5.3-7.5-7.8c-4.5,8.7-6.8,13.6-16,28.2C225.7,74.2,235.1,75.4,253.1,78.9 M274.7,84.5
								c-3.2-5.3-6.6-10.5-10.1-15.2c-3.5-4.9-7.3-9.5-11.1-13.9c-3.8-4.4-7.8-8.5-11.8-12.4c-4.1-3.8-8.2-7.5-12.5-10.9
								c-0.7,2.2-1.6,5.3-2.5,7.5c3.1,2.9,6.2,5.9,9.2,9c3,3.2,6,6.4,8.9,9.9c2.9,3.4,5.8,7,8.4,10.8c2.8,3.7,5.4,7.6,8,11.6
								C265.2,81.8,270.7,83.2,274.7,84.5"/>
							<path class="st7" d="M176.7,34.9c-6,8.9-9.8,14.7-23.7,33c-4.8-0.2-11.1-0.6-15.9-0.9c12.3-15.7,22-28.2,30.1-40.5
								c0.7,0.6,1.6,1.3,2.3,1.9c0.9,0.6,1.6,1.4,2.3,2c0.9,0.6,1.6,1.4,2.5,2.1C175.1,33.4,176,34.1,176.7,34.9"/>
							<path class="st7" d="M208.6,72.2c-14.9-1.5-24-2.5-46.5-3.9c9.3-12.7,13.3-18.3,19.9-28.4c2.2,2.2,4.5,4.7,6.7,7.1
								c2.2,2.5,4.5,5.1,6.7,7.8s4.5,5.5,6.6,8.4C204.2,66.1,206.5,69.1,208.6,72.2"/>
							<path class="st3" d="M233.2,113.6c-1.9-3.7-3.8-7.5-5.9-11.1s-4.1-7.1-6.1-10.6c-2-3.4-4.2-6.8-6.3-10.1s-4.3-6.5-6.4-9.6
								c17.1,2,26.4,3.2,44.5,6.7C247.3,90,244.1,96.1,233.2,113.6"/>
							<path class="st3" d="M245.3,139.7c-0.4-1-0.9-2-1.3-3c-0.4-1-0.9-2-1.3-3c-0.4-1-0.9-2-1.3-3c-0.4-1-0.9-2-1.4-3
								c-0.2-0.4-0.4-0.9-0.6-1.3c-0.2-0.4-0.4-0.9-0.6-1.3c-0.2-0.4-0.4-0.9-0.6-1.3c-0.2-0.4-0.4-0.9-0.6-1.3
								c8.2-13.4,16.6-27.4,23.4-41.9c4.1,1.1,9.6,2.5,13.6,3.7C271.3,93,264.8,108.8,245.3,139.7"/>
							<path class="st4" d="M284.7,67.4c-0.3-8.1-0.4-11.7-4.5-18.9c-8.4-5.7-12.3-8.2-25.7-13.2c2.8,2.2,5.4,4.7,8.1,7.1
								c2.7,2.5,5.2,5.1,7.8,7.8c2.6,2.7,5,5.4,7.4,8.3C280.2,61.3,282.5,64.3,284.7,67.4 M284.3,72.1c-2.6-3.7-5.3-7.5-8.1-11
								c-2.8-3.5-5.8-6.9-8.7-10.1c-3-3.2-6.1-6.3-9.3-9.3c-3.2-3-6.5-5.8-9.8-8.4c-3.6-1-8.5-2.3-12.2-3.2
								c4.4,3.3,8.6,6.8,12.8,10.7c4.2,3.8,8.2,7.9,12.1,12.2c3.8,4.3,7.7,8.9,11.2,13.6c3.6,4.8,7,9.8,10.2,15
								C283.1,78.7,285,74.9,284.3,72.1"/>
							<path class="st2" d="M317.2,106.9c-0.3-0.9-0.6-1.8-1.1-2.7c-0.3-0.9-0.7-1.8-1.1-2.7s-0.7-1.8-1.2-2.7
								c-0.4-0.9-0.7-1.8-1.2-2.7c-0.2-0.3-0.3-0.7-0.5-1.2c-0.2-0.3-0.3-0.7-0.5-1.2c-0.2-0.4-0.3-0.7-0.5-1.1s-0.3-0.7-0.5-1.1
								c-6.1-6.7-11.2-12.5-26.2-19.5c-0.5,2.9-1.2,6.6-1.8,9.4C294.7,86.9,307.2,92.6,317.2,106.9 M306.4,83.7
								c-1.8-3.3-3.7-6.5-5.8-9.6c-2-3.1-4.2-6.1-6.3-9.1c-2.2-3-4.5-5.8-6.8-8.5c-2.3-2.8-4.8-5.4-7.4-8c3.1,6.3,4.5,9.2,4.5,18.9
								C294.5,72.9,298.9,75.5,306.4,83.7"/>
							<path class="st5" d="M280.2,48.5c-1.5-2-3.6-4.6-5.3-6.3l-8.7-7.4c-3.2-2.2-7.4-5.4-10.6-7.6c-2.6-1.5-6-3.5-8.6-4.9
								c3,1.8,6,3.6,8.9,5.7s5.8,4.1,8.5,6.3c2.8,2.1,5.5,4.5,8.2,6.8C275.1,43.5,277.7,46,280.2,48.5 M239.7,18.3
								c2.5,1.2,5.8,2.8,8.1,4.2l-3-1.7c-3.7-1.9-8.6-4.5-12.5-6.3l-6.3-2.6c1.2,0.4,2.3,1,3.4,1.5s2.2,1.1,3.4,1.6
								c1.2,0.5,2.2,1.1,3.4,1.6C237.5,17.2,238.6,17.7,239.7,18.3"/>
							<path class="st6" d="M280.2,48.5c2.9,2.5,6.6,5.9,9.2,8.5l-4.4-4.9c-3-3-7-7.1-10.1-10C276.5,44,278.6,46.7,280.2,48.5"/>
							<path class="st7" d="M239.7,18.3c4.2,3.5,7.9,6.6,8.6,14.9c-3.6-1-8.5-2.3-12.2-3.2c-0.1-6.6-0.3-12.8-10.1-18.1
								c1.2,0.4,2.3,1,3.4,1.5c1.2,0.5,2.2,1.1,3.4,1.6c1.2,0.5,2.2,1.1,3.4,1.6C237.5,17.2,238.6,17.7,239.7,18.3"/>
							<path class="st7" d="M280.2,48.5c-8.4-5.7-12.3-8.2-25.7-13.2c-1.6-5.8-2.3-8.3-7.6-12.9c3,1.8,6,3.6,8.9,5.7
								s5.8,4.1,8.5,6.3c2.8,2.1,5.5,4.5,8.2,6.8C275.1,43.5,277.7,46,280.2,48.5"/>
							<path class="st3" d="M306.4,83.7c-1.8-3.3-3.7-6.5-5.8-9.6c-2-3.1-4.2-6.1-6.3-9.1c-2.2-3-4.5-5.8-6.8-8.5
								c-2.3-2.8-4.8-5.4-7.4-8c2.9,2.5,6.6,5.9,9.2,8.5c3.6,4.6,8.4,10.7,11.7,15.5l0.6,1C303.4,76.5,305.3,80.5,306.4,83.7"/>
							<path class="st3" d="M317.2,106.9c-0.3-0.9-0.6-1.8-1.1-2.7c-0.3-0.9-0.7-1.8-1.1-2.7s-0.7-1.8-1.2-2.7
								c-0.4-0.9-0.7-1.8-1.2-2.7c-0.2-0.3-0.3-0.7-0.5-1.2c-0.2-0.3-0.3-0.7-0.5-1.2c-0.2-0.4-0.3-0.7-0.5-1.1s-0.3-0.7-0.5-1.1
								c-1.1-3.3-2.8-7.8-4.4-10.9c2.2,4.2,5.3,9.8,7.4,14.1C314.9,98.3,316.3,103.1,317.2,106.9"/>
							<path class="st6" d="M17.3,93.8c0.9-1.8,1.7-3.6,2.6-5.4c0.9-1.8,1.8-3.5,2.8-5.3c1-1.7,2-3.5,3-5.1c1.1-1.7,2.1-3.4,3.2-5
								L25,79c-1.9,3.5-4.7,8.2-6.5,11.8L17.3,93.8"/>
							<path class="st3" d="M13.6,101.7l4.9-11l-1.3,3C16.1,96.2,14.6,99.4,13.6,101.7"/>
							<path class="st4" d="M28.4,77.4c6.3-8.3,10.1-13.3,20.4-24c-0.5-2.3-0.7-3.3,2.2-7c-2.2,2.2-4.4,4.6-6.4,7
								c-2,2.5-4.1,4.9-6,7.5c-1.9,2.6-3.7,5.2-5.4,8C31.5,71.7,29.9,74.5,28.4,77.4 M24.9,82.4c1.6-3.3,3.4-6.5,5.2-9.6
								s3.8-6.1,6-9.1c2.1-2.9,4.3-5.8,6.6-8.4c2.2-2.7,4.7-5.3,7.1-7.8c-2.2,2.3-5.3,5.5-7.6,8c-2.3,2.7-4.6,5.4-6.7,8.3
								c-2.1,2.9-4.2,5.8-6.1,8.9c-1.9,3-3.7,6.1-5.5,9.3c-1.7,3.2-3.3,6.4-4.8,9.8C20.8,88.8,23.2,85.2,24.9,82.4"/>
							<path class="st2" d="M30,107.4c0.1-1.2,0.3-2.5,0.5-3.6s0.3-2.3,0.5-3.6c0.2-1.2,0.4-2.3,0.6-3.5c0.2-1.2,0.4-2.3,0.7-3.5
								c-4.6-3-7.9-5.1-7.6-10.8c-1.7,2.8-4.2,6.4-5.8,9.2C18.7,97.9,19.2,102.1,30,107.4 M34.2,85.8c0.9-3,1.8-6,2.9-8.9
								c1.1-2.9,2.1-5.7,3.4-8.4c1.2-2.7,2.6-5.3,3.9-7.9c1.4-2.6,2.9-5,4.4-7.4c-8.6,9.2-12.7,13.8-20.4,24
								C28.9,81.2,29.1,82.5,34.2,85.8"/>
							<path class="st5" d="M48.8,53.4c6.8-6.9,11.4-11.5,20.9-19.5c-0.2-0.3-0.5-0.6-0.7-1c0.2-1.5,0.2-1.5,1.9-2.9
								c-2.1,1.6-4.2,3.2-6.1,4.9c-2,1.7-3.9,3.6-5.8,5.5c-1.8,1.9-3.6,4.1-5.3,6.2C51.8,48.7,50.2,51.1,48.8,53.4 M73.4,30.7
								c1.9-1.5,4.5-3.6,6.5-5.1c-0.2-0.1-0.5-0.3-0.7-0.5c0.1-0.5,0.6-1.1,1.1-1.4c-1.1,0.6-2.6,1.6-3.6,2.2l-1.8,1.2
								c-0.7,0.5-1.6,1.4-2.1,2.2C72.6,29.9,73,30.4,73.4,30.7"/>
							<path class="st6" d="M57.3,58.3c0.7-2.5,1.5-4.8,2.5-7c0.9-2.2,1.8-4.4,2.9-6.4c1.1-2,2.1-3.9,3.3-5.9
								c1.2-1.8,2.3-3.5,3.7-5.2c-7.3,6.3-11.7,10.1-20.9,19.5C50.5,55.6,51.2,56.5,57.3,58.3 M67.3,60.4c0.3-3.9,1-7.6,1.6-11
								c0.7-3.4,1.6-6.6,2.7-9.5c1.1-2.9,2.2-5.5,3.6-7.9s2.9-4.5,4.6-6.3c-1.9,1.5-4.6,3.5-6.5,5.1c-1.5,1.8-2.9,3.7-4.1,5.8
								c-1.3,2.1-2.5,4.3-3.5,6.7c-1.1,2.3-2,4.9-3,7.6c-0.9,2.7-1.7,5.5-2.3,8.4C62.5,59.5,65.3,60,67.3,60.4"/>
							<path class="st7" d="M48.8,53.4c-0.5-2.3-0.7-3.3,2.2-7c7.4-6.7,10.7-9.8,19.7-16.4c-2.1,1.6-4.2,3.2-6.1,4.9
								c-2,1.7-3.9,3.6-5.8,5.5c-1.8,1.9-3.6,4.1-5.3,6.2C51.8,48.7,50.2,51.1,48.8,53.4"/>
							<path class="st3" d="M34.2,85.8c0.9-3,1.8-6,2.9-8.9c1.1-2.9,2.1-5.7,3.4-8.4c1.2-2.7,2.6-5.3,3.9-7.9c1.4-2.6,2.9-5,4.4-7.4
								c1.7,2.1,2.6,3.1,8.6,5C48.5,68.1,43.7,73.6,34.2,85.8"/>
							<path class="st3" d="M30,107.4c0.1-1.2,0.3-2.5,0.5-3.6s0.3-2.3,0.5-3.6c0.2-1.2,0.4-2.3,0.6-3.5c0.2-1.2,0.4-2.3,0.7-3.5
								c8-10.6,14.4-19,28-34c2,0.4,4.8,1,6.9,1.3C56.6,72.6,44.5,86.4,30,107.4"/>
							<path class="st4" d="M88.5,42.2c7.6-8,7.6-8,18.4-19.3c-11.5,0.5-13.5,0.6-17.9,0.7c-0.3,1.1-0.5,2.3-0.6,3.6
								c-0.1,1.3-0.2,2.8-0.3,4.3c0,1.6,0,3.2,0.1,5C88.1,38.4,88.3,40.2,88.5,42.2 M84.2,46.8c-0.1-2.6-0.2-4.9-0.1-7.3
								c0-2.2,0.2-4.4,0.4-6.3c0.2-1.9,0.5-3.7,1-5.3c0.4-1.6,0.9-3.1,1.4-4.4c-0.9,0-2,0-3-0.1c-1.3,1.6-2.5,3.5-3.4,5.8
								c-1,2.2-1.8,4.7-2.5,7.4c-0.6,2.8-1.2,5.8-1.6,9c-0.3,3.3-0.5,6.7-0.5,10.5C78.3,53.3,81.6,49.6,84.2,46.8"/>
							<path class="st2" d="M125.7,58.9c-0.4-1-1-1.8-1.4-2.8c-0.4-1-1-1.8-1.4-2.7c-0.4-0.9-0.9-1.7-1.3-2.7
								c-0.4-0.9-0.9-1.7-1.3-2.6c-15.5-0.4-26.7-0.7-36.3-1.4c-2.6,2.8-5.9,6.4-8.4,9.2C89.6,57.3,95.7,57.6,125.7,58.9 M117.7,43
								c-1.1-2.1-2.1-4.2-3.2-6.1c-1-1.9-1.9-3.6-2.9-5.3c-0.9-1.7-1.7-3.2-2.6-4.7c-0.9-1.4-1.6-2.8-2.2-3.9
								C96.6,33.6,94.8,35.4,88.4,42.2C96.4,42.5,99.9,42.7,117.7,43"/>
							<path class="st5" d="M106.9,22.9c6.6-6.9,8.3-8.7,11-11.8c-6.3,0.9-10.9,1.6-16.8,2.9c0.3,0.3,0.6,0.6,1,1.2
								c0.4,0.5,0.9,1.2,1.3,1.9c0.5,0.7,1.1,1.6,1.6,2.6C105.6,20.7,106.2,21.8,106.9,22.9 M119,9.7c0.4-0.5,1-1.3,1.3-1.9
								c-9.4,1.9-11.7,2.5-17.7,4.7l-1.5,0.6l-1.1,0.4c0.1,0,0.1,0,0.1,0c0.1,0,0.1,0,0.2,0.1C104,12.6,108.5,11.3,119,9.7"/>
							<path class="st6" d="M135,22c-1.6-1.4-3.2-2.7-4.7-3.7c-1.5-1.2-3-2.1-4.5-3.1c-1.4-0.9-2.9-1.7-4.2-2.3
								c-1.4-0.6-2.7-1.2-3.9-1.6c-2.8,3.1-3.9,4.5-11,11.8C120,22.4,124.5,22.2,135,22 M154.4,21.8c-3.2-2.3-6.3-4.4-9.3-6.1
								c-3-1.7-6-3.2-8.9-4.4s-5.7-2-8.3-2.7c-2.7-0.6-5.2-0.9-7.7-1c-0.3,0.6-0.9,1.4-1.3,1.9c1.6,0.3,3.3,0.9,5.1,1.5
								c1.8,0.6,3.6,1.5,5.4,2.6c1.9,1.1,3.8,2.2,5.9,3.5c2,1.4,4.1,2.9,6.2,4.6C145.5,21.9,150.6,21.8,154.4,21.8"/>
							<path class="st7" d="M100.5,13.5c-2.7,1.7-6.1,3.8-13.8,10.1c-0.9,0-2,0-3-0.1c4.8-3.5,9.8-7.1,13.9-9
								c0.7-0.3,1.7-0.7,2.5-1.1c0.1,0,0.1,0,0.1,0C100.3,13.4,100.4,13.4,100.5,13.5C100.4,13.5,100.4,13.5,100.5,13.5"/>
							<path class="st7" d="M106.9,22.9c-11.5,0.5-13.5,0.6-17.9,0.7c4.5-3.7,7.7-6.4,12.1-9.7c0.3,0.3,0.6,0.6,1,1.2
								c0.4,0.5,0.9,1.2,1.3,1.9c0.5,0.7,1.1,1.6,1.6,2.6C105.6,20.7,106.2,21.8,106.9,22.9"/>
							<path class="st3" d="M117.7,43c-1.1-2.1-2.1-4.2-3.2-6.1c-1-1.9-1.9-3.6-2.9-5.3c-0.9-1.7-1.7-3.2-2.6-4.7
								c-0.9-1.4-1.6-2.8-2.2-3.9c13.1-0.5,17.6-0.7,28.2-1C130.1,28.2,127.9,31,117.7,43"/>
							<path class="st3" d="M125.7,58.9c-0.4-1-1-1.8-1.4-2.8c-0.4-1-1-1.8-1.4-2.7c-0.4-0.9-0.9-1.7-1.3-2.7
								c-0.4-0.9-0.9-1.7-1.3-2.6c8.6-10.5,15.5-18.7,21.2-26.3c3.8,0,9-0.1,12.8-0.1C148.2,30.5,144.5,35.7,125.7,58.9"/>
							<path class="st4" d="M167,10.8c1.4-4.5,1.8-6.1-0.1-8.4c-9.9,0.3-15.9,0.4-28.8,2c2.3,0.1,4.7,0.2,7,0.5
								c2.3,0.3,4.8,0.7,7.1,1.3c2.5,0.5,4.9,1.2,7.4,2C162,8.9,164.6,9.7,167,10.8 M165.9,13.2c-2.9-1.4-5.8-2.6-8.5-3.6
								S151.8,7.7,149,7c-2.8-0.6-5.4-1.2-8.1-1.6c-2.7-0.3-5.2-0.5-7.9-0.5c-2.6,0.4-6,1-8.5,1.4c2.9-0.1,5.9,0,8.9,0.5
								c3.1,0.4,6.2,1.2,9.5,2.2c3.2,1.1,6.6,2.3,9.9,3.9c3.4,1.6,6.8,3.5,10.3,5.7C163.9,17.1,165.1,14.9,165.9,13.2"/>
							<path class="st2" d="M221.7,23.1c-1.1-0.6-2-1.3-3.1-1.9c-1.1-0.6-2.1-1.3-3.1-1.8c-1.1-0.6-2.1-1.2-3.2-1.8
								c-1.1-0.5-2.1-1.2-3.2-1.7c-12.4-1.4-22.2-2.6-43.3-2.7c-0.9,1.6-2,3.8-3,5.4C179.7,19.1,198.7,19.4,221.7,23.1 M202.3,12.6
								c-2.9-1.3-5.9-2.6-8.9-3.6c-3-1.1-5.9-2-8.9-2.9c-3-0.9-5.9-1.6-8.9-2.2c-3-0.6-5.9-1.2-8.9-1.5c1.4,2.3,2,3.2,0.1,8.4
								C182.6,11,188.8,11.1,202.3,12.6"/>
							<path class="st5" d="M166.9,2.2c-2.2-1.5-3.3-2.1-8.5-2l-8,0.5c-4.2,0.4-9.6,1.2-13.6,1.8L134,3.1c2.7-0.5,5.3-0.9,8.1-1.2
								s5.4-0.4,8.2-0.5c2.8-0.1,5.5,0,8.3,0.1C161.3,1.6,164,1.9,166.9,2.2"/>
							<path class="st6" d="M196.8,4.1c-13.9-2.8-21.5-4.3-36.9-3.9l-1.5,0.1c4.3,0.1,6.4,0.2,8.5,2C177.6,2.3,184.1,2.5,196.8,4.1
								 M212.2,7.1c-2-0.6-4.2-1.3-6.2-1.8c-2.1-0.5-4.2-1.1-6.3-1.6c-2.1-0.4-4.2-0.9-6.3-1.3s-4.3-0.7-6.3-1
								C182.1,1,175.1,0.3,170,0.1L166.5,0c3,0,6,0.1,9,0.4c3,0.2,6,0.5,9,1s6,1,9,1.5c3,0.6,6,1.3,9,2.1
								C205.3,5.7,209.2,6.4,212.2,7.1"/>
							<path class="st7" d="M133,4.9c-2.6,0.4-6,1-8.5,1.4c-0.1-0.2-0.2-0.4-0.3-0.6c-0.6-0.1-1.5,0-2.1,0.1l1.5-0.4
								c1.6-0.4,3.8-1,5.4-1.4C131.5,3.7,132.8,3.6,133,4.9"/>
							<path class="st7" d="M166.9,2.2c-9.9,0.3-15.9,0.4-28.8,2c-0.7-1-1.3-1.7-5-1.1l0.7-0.1c2.7-0.5,5.3-0.9,8.1-1.2
								s5.4-0.4,8.2-0.5c2.8-0.1,5.5,0,8.3,0.1C161.3,1.6,164,1.9,166.9,2.2"/>
							<path class="st3" d="M202.3,12.6c-2.9-1.3-5.9-2.6-8.9-3.6c-3-1.1-5.9-2-8.9-2.9c-3-0.9-5.9-1.6-8.9-2.2
								c-3-0.6-5.9-1.2-8.9-1.5c10.7,0.1,17.2,0.2,29.9,1.8C200.2,6.5,201.7,7.6,202.3,12.6"/>
							<path class="st3" d="M221.7,23.1c-1.1-0.6-2-1.3-3.1-1.9c-1.1-0.6-2.1-1.3-3.1-1.8c-1.1-0.6-2.1-1.2-3.2-1.8
								c-1.1-0.5-2.1-1.2-3.2-1.7c-0.5-4.5-1-7.9-6.8-10.9c3,0.6,6.9,1.4,9.9,2.1C217.2,9.8,222.5,12.6,221.7,23.1"/>
							<path class="st5" d="M37.2,264.5l-1.6-2.1l-1.8-2.2L37.2,264.5 M33.5,258.8c-1-2.1-2.2-5-3-7.4c-6.7-6.9-7-7.1-10.1-12.8
								c2.5,4.3,5.7,10,8.4,14.2C30.2,254.7,32,257.1,33.5,258.8"/>
							<path class="st6" d="M66.7,292.9c-2.9-2.1-5.7-4.4-8.4-6.7c-2.8-2.3-5.4-4.8-8-7.4c-2.6-2.6-5.1-5.2-7.6-7.9
								c-2.5-2.8-4.8-5.5-7-8.5l1.6,2.1l0.5,0.7c11.6,13.2,11.6,13.2,18.1,19.1l9.4,7.8L66.7,292.9 M79.3,300.2
								c-4.7-3.1-9.3-6.4-13.6-9.9c-4.5-3.5-8.7-7.4-12.8-11.4c-4.1-4.1-8-8.4-11.7-12.9c-3.7-4.6-7.3-9.4-10.5-14.3
								c0.9,2.2,1.9,5.2,3,7.4c2.7,3.6,5.4,7.1,8.3,10.5c2.9,3.3,5.9,6.6,9.1,9.7c3.2,3.1,6.3,6,9.7,8.7c3.3,2.8,6.7,5.4,10.2,7.9
								C73.3,297.1,76.7,298.9,79.3,300.2"/>
							<polyline class="st3" points="67.5,293.7 65.4,292.1 66.7,292.9 67.5,293.7 							"/>
							<path class="st3" d="M86.7,305.8l-10-5.9l-2.5-1.6l-3.4-2.6c2.6,1.4,5.9,3.2,8.5,4.5C81.4,302,84.4,304.4,86.7,305.8"/>
							<path class="st4" d="M79.4,290.9c-0.2-7.6-0.2-10.5,3.8-22.6c-15.7-3.3-22.2-4.7-35.2-10c2.3,3.1,4.7,6.2,7.3,9.1
								c2.5,2.9,5,5.8,7.7,8.4c2.7,2.8,5.3,5.3,8,7.8C73.7,286.2,76.6,288.6,79.4,290.9 M80,294.3c-3.5-2.6-6.9-5.3-10.2-8.3
								c-3.3-2.9-6.6-6-9.7-9.2c-3.2-3.2-6.2-6.6-9.2-10.1c-3-3.5-5.8-7.1-8.4-11c-2.8-1.6-6.4-3.6-9-5.3c3.3,5.1,6.8,9.9,10.6,14.6
								c3.7,4.6,7.7,9,11.7,13.1s8.4,8,12.8,11.6c4.4,3.6,9,6.9,13.6,10C81.6,298.2,81.1,295.7,80,294.3"/>
							<path class="st2" d="M134.6,309.2c-1.1-0.5-2.1-1.1-3.1-1.6c-1.1-0.5-2.1-1.2-3.1-1.7c-1.1-0.6-2-1.2-3.1-1.8
								c-1.1-0.6-2-1.3-3.1-1.9c-14.4-1.6-26.8-3-42-7.8c0.6,1.7,1.4,3.9,2.2,5.4C93.2,303.3,105.5,307.2,134.6,309.2 M115.4,297.5
								c-2.8-2-5.5-4.1-8.3-6.3c-2.8-2.2-5.5-4.6-8.2-7c-2.7-2.5-5.3-5-8-7.7c-2.7-2.7-5.2-5.4-7.7-8.3c-3.2,10.1-4.5,14.4-3.8,22.6
								C91.9,294,97.1,295.4,115.4,297.5"/>
							<path class="st5" d="M83.2,268.3c3.7-9.6,6-15.4,14.5-30.9c-16.4-2.6-25.4-3.9-41.9-8.3c2,3.6,4.1,7.1,6.2,10.7
								c2.1,3.5,4.4,6.8,6.6,10.1s4.7,6.5,7,9.5C78.2,262.4,80.7,265.4,83.2,268.3 M101.8,230.3c2.5-4.1,5.7-9.5,8.1-13.5
								c-20-2.8-40.6-5.5-65.9-13.2c0.4,1,0.7,1.9,1.2,3c0.4,1,0.9,1.9,1.3,3c0.4,1,0.9,1.9,1.3,3c0.4,1,0.9,1.9,1.4,2.9
								c0.2,0.4,0.4,0.9,0.5,1.3c0.2,0.4,0.4,0.9,0.6,1.3c0.2,0.4,0.4,0.9,0.6,1.3s0.4,0.9,0.6,1.3
								C65.2,223.9,76.1,226.8,101.8,230.3"/>
							<path class="st6" d="M125.5,273.9c-2.5-2.7-4.8-5.3-7.1-8.2c-2.3-2.9-4.7-5.8-7-8.9c-2.3-3.1-4.6-6.2-6.8-9.5
								c-2.2-3.3-4.5-6.6-6.6-10c-6.5,12.2-10.1,18.9-14.5,30.9C96.7,270.7,105,272,125.5,273.9 M150.2,275.6
								c-3.4-3.9-6.9-8.1-10.3-12.5c-3.4-4.5-6.8-9.2-10.2-14.1c-3.4-4.9-6.7-10.1-10-15.5c-3.3-5.3-6.5-11-9.7-16.7
								c-2.5,4.1-5.8,9.4-8.1,13.5c2.6,4.3,5.1,8.3,7.8,12.3c2.7,3.9,5.3,7.8,8,11.5c2.8,3.7,5.4,7.3,8.2,10.7
								c2.8,3.4,5.5,6.6,8.4,9.7C139,274.8,145.4,275.2,150.2,275.6"/>
							<path class="st7" d="M51.3,220.3c-4.9,12.8-8.7,22.8-8.9,35.4c-2.8-1.6-6.4-3.6-9-5.3c-0.5-10.8-1-20.9,10.5-46.8
								c0.4,1,0.7,1.9,1.2,3c0.4,1,0.9,1.9,1.3,3c0.4,1,0.9,1.9,1.3,3c0.4,1,0.9,1.9,1.4,2.9c0.2,0.4,0.4,0.9,0.5,1.3
								c0.2,0.4,0.4,0.9,0.6,1.3c0.2,0.4,0.4,0.9,0.6,1.3C51,219.5,51.1,219.9,51.3,220.3"/>
							<path class="st7" d="M83.2,268.3c-15.7-3.3-22.2-4.7-35.2-10c1.3-10.2,1.8-14,7.8-29.2c2,3.6,4.1,7.1,6.2,10.7
								c2.1,3.5,4.4,6.8,6.6,10.1s4.7,6.5,7,9.5C78.2,262.4,80.7,265.4,83.2,268.3"/>
							<path class="st3" d="M115.4,297.5c-2.8-2-5.5-4.1-8.3-6.3c-2.8-2.2-5.5-4.6-8.2-7c-2.7-2.5-5.3-5-8-7.7
								c-2.7-2.7-5.2-5.4-7.7-8.3c13.5,2.2,21.6,3.7,42.3,5.5C120.6,283.5,118,288.7,115.4,297.5"/>
							<path class="st3" d="M134.6,309.2c-1.1-0.5-2.1-1.1-3.1-1.6c-1.1-0.5-2.1-1.2-3.1-1.7c-1.1-0.6-2-1.2-3.1-1.8
								c-1.1-0.6-2-1.3-3.1-1.9c2-6.8,3.7-12.8,12.1-27.5c4.8,0.3,11.2,0.7,16,1C143.2,287.1,136.6,298.1,134.6,309.2"/>
							<path class="st4" d="M173.5,253.3c8.3-11.6,10.7-14.7,26.2-35.8c-25-1.8-32.5-2.5-48.7-3.8c1.9,3.6,3.8,7.1,5.7,10.7
								c1.9,3.5,3.7,6.8,5.7,10.2c1.9,3.3,3.7,6.5,5.7,9.7C169.9,247.3,171.7,250.3,173.5,253.3 M169,259.7
								c-2.2-3.4-4.6-6.9-6.8-10.6c-2.3-3.6-4.7-7.5-6.9-11.4c-2.3-3.9-4.7-8-7-12.2c-2.3-4.2-4.7-8.5-7-12.9
								c-5.4-0.5-12.6-1.3-18-1.8c3.1,5.9,6.2,11.5,9.4,17c3.2,5.4,6.4,10.7,9.6,15.7c3.2,5,6.4,9.8,9.7,14.4
								c3.2,4.5,6.4,8.9,9.6,12.9C163.7,267.5,166.7,263,169,259.7"/>
							<path class="st2" d="M223.2,272.5c-0.3-0.9-0.7-1.7-1.1-2.6c-0.3-0.9-0.7-1.8-1.1-2.7c-0.3-1-0.7-1.8-1.2-2.8
								c-0.4-1-0.7-1.9-1.2-2.9c-39.5-1.5-39.5-1.5-49.7-1.9c-2.2,3.3-5.3,7.7-7.6,11.1C175.9,271.3,175.9,271.3,223.2,272.5
								 M216.1,255.2c-1.2-2.8-2.5-5.7-3.6-8.6c-1.3-3-2.6-6.1-3.9-9.2c-1.4-3.2-2.8-6.4-4.2-9.7c-1.5-3.3-3-6.7-4.5-10.2
								c-13.3,18.1-17.9,24.2-26.2,35.8C181.4,253.7,181.4,253.7,216.1,255.2"/>
							<path class="st5" d="M199.8,217.4c14.8-20.2,19.3-26.2,28.8-39.6c-16.4-1.9-19.8-2.2-48.8-5.2c1.8,3.9,3.5,7.9,5.3,11.7
								c1.7,3.8,3.4,7.7,5.1,11.4s3.3,7.5,4.9,11.1C196.7,210.4,198.3,213.9,199.8,217.4 M234.1,169.9c3-4.4,6.9-10.1,9.9-14.5
								c-11.7-1.7-35.9-5.2-76.6-9.5c0.4,1,1,2,1.4,3c0.4,1,1,2,1.4,3c0.4,1.1,1,2,1.4,3.1c0.4,1.1,1,2,1.4,3.1
								c0.2,0.4,0.4,0.9,0.6,1.3c0.2,0.4,0.4,0.9,0.6,1.3c0.2,0.4,0.4,0.9,0.6,1.3c0.2,0.4,0.4,0.9,0.6,1.3
								C200.9,165.9,217.7,167.7,234.1,169.9"/>
							<path class="st6" d="M242.5,221c-1-3.3-1.9-6.7-2.9-10.2c-1.1-3.5-2.1-7-3.3-10.7c-1.2-3.6-2.5-7.3-3.7-11
								c-1.3-3.7-2.7-7.5-4.1-11.3c-8.9,12.4-13.2,18.6-28.8,39.6C223.7,219.3,229.7,219.7,242.5,221 M262.5,223.3
								c-0.7-5.1-1.7-10.5-2.9-15.8c-1.2-5.4-2.5-11-4.1-16.7c-1.5-5.8-3.3-11.5-5.2-17.5c-1.9-6-4.1-11.9-6.4-18
								c-3,4.4-6.9,10.2-9.9,14.5c1.7,4.6,3.3,9.2,4.9,13.6c1.5,4.5,3,9,4.3,13.2c1.3,4.4,2.6,8.6,3.6,12.8c1.1,4.2,2.1,8.2,3,12.3
								C253.7,222.2,258.7,222.8,262.5,223.3"/>
							<path class="st7" d="M175.4,163.2c-27.5,39.5-27.5,39.5-34.2,49.5c-5.4-0.5-12.6-1.3-18-1.8c6.5-9.9,20.2-30.6,44.3-65.1
								c0.4,1,1,2,1.4,3c0.4,1,1,2,1.4,3c0.4,1.1,1,2,1.4,3.1s1,2,1.4,3.1c0.2,0.4,0.4,0.9,0.6,1.3c0.2,0.4,0.4,0.9,0.6,1.3
								c0.2,0.4,0.4,0.9,0.6,1.3C175,162.3,175.2,162.7,175.4,163.2"/>
							<path class="st7" d="M199.8,217.4c-25-1.8-32.5-2.5-48.7-3.8c7.4-10.6,7.4-10.6,28.7-40.9c1.8,3.9,3.5,7.9,5.3,11.7
								c1.7,3.8,3.4,7.7,5.1,11.4s3.3,7.5,4.9,11.1C196.7,210.4,198.3,213.9,199.8,217.4"/>
							<path class="st3" d="M216.1,255.2c-1.2-2.8-2.5-5.7-3.6-8.6c-1.3-3-2.6-6.1-3.9-9.2c-1.4-3.2-2.8-6.4-4.2-9.7
								c-1.5-3.3-3-6.7-4.5-10.2c24,1.8,30,2.3,42.8,3.6C233,233.4,231.3,235.8,216.1,255.2"/>
							<path class="st3" d="M223.2,272.5c-0.3-0.9-0.7-1.7-1.1-2.6c-0.3-0.9-0.7-1.8-1.1-2.7c-0.3-1-0.7-1.8-1.2-2.8
								c-0.4-1-0.7-1.9-1.2-2.9c11.6-14.6,21.6-27.3,31.2-39.9c3.7,0.4,8.7,1.1,12.5,1.6C247.8,242.2,244.5,246.2,223.2,272.5"/>
							<path class="st4" d="M286.9,198.4c10.9-16.3,14.4-21.8,20.8-34.3c-9.5-4.4-12.7-5.9-29.2-10c1.1,3.8,2.1,7.6,3,11.4
								c0.9,3.7,1.7,7.5,2.5,11.2c0.7,3.7,1.3,7.4,1.8,11C286.1,191.3,286.6,194.8,286.9,198.4 M282,205.3
								c-0.3-4.2-0.9-8.4-1.5-12.7c-0.6-4.3-1.4-8.6-2.3-13.1c-1-4.5-1.9-9-3.2-13.4c-1.2-4.5-2.6-9.1-3.9-13.6
								c-4.4-0.9-10.1-2-14.5-2.9c2.2,6.1,4.2,12.1,6,18s3.3,11.7,4.7,17.5s2.5,11.4,3.4,16.8s1.6,10.9,2.1,16.1
								C275.6,214.1,280.8,209.9,282,205.3"/>
							<path class="st2" d="M303.9,229c0.3-1.2,0.6-2.2,0.9-3.4c0.3-1.2,0.5-2.3,0.7-3.5s0.5-2.3,0.7-3.5c0.2-1.2,0.4-2.3,0.6-3.6
								c-5.4-3.4-9.3-5.9-25-9.5c-2.8,3.8-6.4,8.9-9.3,12.7C287.4,220.9,297.4,223.2,303.9,229 M308.1,206.9
								c0.4-3.4,0.6-6.8,0.9-10.3c0.2-3.5,0.2-7,0.2-10.6c0-3.6-0.2-7.1-0.4-10.9c-0.2-3.6-0.6-7.4-1.1-11
								c-6,11.1-9.2,17.3-20.8,34.3C297.5,201.4,301.6,202.6,308.1,206.9"/>
							<path class="st5" d="M307.6,164c5.7-12.3,8.2-17.8,11-30.4c-6.7-6.1-9.7-8.7-22.3-14.6c1.4,3.7,2.7,7.6,3.8,11.3
								c1.2,3.7,2.2,7.6,3.2,11.3c1,3.7,1.7,7.5,2.5,11.3C306.5,156.7,307.1,160.4,307.6,164 M319.5,128.2c0.2-2.8,0.5-6.5,0.5-9.4
								c-5.8-7.3-12.2-15.6-34.8-24.6c0.5,1,1,1.8,1.4,2.8c0.4,1,1,1.8,1.4,2.8c0.4,1,0.9,1.8,1.4,2.8c0.4,1,0.9,1.9,1.3,2.9
								c0.2,0.4,0.3,0.9,0.5,1.2c0.2,0.4,0.3,0.9,0.5,1.2c0.2,0.4,0.3,0.9,0.5,1.2c0.2,0.4,0.3,0.9,0.5,1.2
								C303,115.1,311.7,119.2,319.5,128.2"/>
							<path class="st6" d="M322.7,177.2c0.1-3.5,0.1-7.1,0-10.8c-0.1-3.6-0.3-7.3-0.6-10.9c-0.3-3.6-0.7-7.3-1.4-11
								c-0.5-3.6-1.3-7.4-2.1-11c-2.8,10.9-3.9,15.8-11,30.4C315,168.6,318.4,170.6,322.7,177.2 M325.7,185.8
								c0.6-5.4,1.1-10.9,1.2-16.4s-0.1-11.1-0.5-16.7s-1.2-11.2-2.2-16.8c-1.1-5.7-2.3-11.2-4.1-16.8c-0.1,2.8-0.2,6.6-0.5,9.4
								c1.1,4.4,2,8.7,2.7,13.1c0.7,4.4,1.3,8.7,1.7,13c0.4,4.4,0.6,8.6,0.6,13c0,4.3-0.1,8.5-0.3,12.8
								C324.6,181.8,325.4,184.1,325.7,185.8"/>
							<path class="st7" d="M292.9,110.2c-4.8,11.8-8.2,20.4-21.8,42.2c-4.4-0.9-10.1-2-14.5-2.9c10.6-17.1,21.5-34.6,28.8-55.3
								c0.5,1,1,1.8,1.4,2.8c0.4,1,1,1.8,1.4,2.8c0.4,1,0.9,1.8,1.4,2.8c0.4,1,0.9,1.9,1.3,2.9c0.2,0.4,0.3,0.9,0.5,1.2
								c0.2,0.4,0.3,0.9,0.5,1.2c0.2,0.4,0.3,0.9,0.5,1.2C292.4,109.4,292.6,109.7,292.9,110.2"/>
							<path class="st7" d="M307.6,164c-9.5-4.4-12.7-5.9-29.2-10c9.1-15.5,12.5-21.2,18-35c1.4,3.7,2.7,7.6,3.8,11.3
								c1.2,3.7,2.2,7.6,3.2,11.3c1,3.7,1.7,7.5,2.5,11.3C306.5,156.7,307.1,160.4,307.6,164"/>
							<path class="st3" d="M308.1,206.9c0.4-3.4,0.6-6.8,0.9-10.3c0.2-3.5,0.2-7,0.2-10.6c0-3.6-0.2-7.1-0.4-10.9
								c-0.2-3.6-0.6-7.4-1.1-11c7.5,4.5,10.8,6.6,15,13.1C318.3,188,316.3,192.9,308.1,206.9"/>
							<path class="st3" d="M303.9,229c0.3-1.2,0.6-2.2,0.9-3.4c0.3-1.2,0.5-2.3,0.7-3.5s0.5-2.3,0.7-3.5c0.2-1.2,0.4-2.3,0.6-3.6
								c6.4-10.6,12.5-20.6,17.2-34.7c0.5,1.7,1.3,3.9,1.6,5.7C322.2,196.3,318.6,207.3,303.9,229"/>
							<path class="st4" d="M326.6,136.9c-0.2-1-0.3-1.9-0.5-3c-0.2-1-0.3-1.9-0.5-2.9s-0.4-1.9-0.6-2.9c-0.2-1-0.4-1.9-0.6-2.9
								c-0.7-2.1-1.6-5.1-2.6-7.1c1.6,5.5,2.9,11.1,3.9,16.6c1.1,5.5,1.7,11.1,2.1,16.6c0.4,5.5,0.5,11.1,0.4,16.5
								c-0.1,5.5-0.5,11-1.3,16.3l1.1-6.9c0.2-3.9,0.6-9.2,0.6-13.1c-0.5-17-0.5-17-1.8-25.5L326.6,136.9"/>
							<path class="st2" d="M326.6,188.6l1.4-11.4l-1.1,6.9L326.6,188.6"/>
							<path class="st7" d="M324.1,125v0.2c-0.7-2.1-1.6-5.1-2.6-7.1c-0.5-2.5-1.3-5.9-2-8.3l1.2,3.6L324.1,125"/>
							<path class="st4" d="M156.9,325.6l-2.5-0.2c-2.6-0.2-6.1-0.4-8.6-0.7l3.9,0.4L156.9,325.6"/>
							<path class="st2" d="M166.8,325.8c-1.1,0-2,0-3.1,0s-2,0-3.1-0.1c-1.1,0-2-0.1-3.1-0.1c-1.1-0.1-2-0.1-3.1-0.2l2.5,0.2
								L166.8,325.8"/>
							<path class="st5" d="M154.4,325.4c-5.1-1-7.4-1.4-10.1-4.6c-11.1-0.9-17.8-1.3-30-4.1c3.3,1.2,6.6,2.2,9.9,3.2
								c3.3,1,6.6,1.8,10,2.5c3.3,0.7,6.7,1.3,10.1,1.8C147.7,324.7,151,325.1,154.4,325.4 M143.3,319.2c-0.2-1.2-0.6-2.7-0.7-3.8
								c-14.4-0.9-30.6-1.8-49.8-8.1c1.2,0.6,2.2,1.2,3.4,1.8c1.2,0.6,2.2,1.2,3.4,1.7s2.3,1.1,3.5,1.6c1.2,0.5,2.3,1.1,3.5,1.5
								C116.7,316.2,125.3,318.2,143.3,319.2"/>
							<path class="st6" d="M181.5,324.5c-3.1,0.2-6.1,0.2-9.2,0.1c-3.1-0.1-6.2-0.2-9.3-0.5c-3.1-0.3-6.3-0.7-9.4-1.3
								c-3.1-0.5-6.3-1.2-9.4-2c2.7,2.5,3.8,3.6,10.1,4.6C163.6,325.7,169,325.8,181.5,324.5 M196.2,322.5
								c-4.3,0.5-8.5,0.9-12.9,0.9s-8.9-0.3-13.3-1s-9.1-1.5-13.6-2.7c-4.6-1.2-9.2-2.7-13.8-4.4c0.2,1.2,0.3,2.8,0.7,3.8
								c3.6,1.1,7.4,2,11,2.8c3.6,0.7,7.4,1.3,11,1.7c3.6,0.4,7.3,0.6,10.9,0.6c3.6,0.1,7.1-0.1,10.7-0.3
								C189.6,323.4,193.4,322.9,196.2,322.5"/>
							<path class="st7" d="M106.6,313.7c4.8,3,4.8,3,8.1,4.1c-3.9-1.4-9.2-3.2-13-4.8c-5.7-2.9-6.1-3.1-8.9-5.9
								c1.2,0.6,2.2,1.2,3.4,1.8c1.2,0.5,2.2,1.2,3.4,1.7s2.3,1.1,3.5,1.6C104.2,312.8,105.4,313.3,106.6,313.7"/>
							<path class="st7" d="M154.4,325.4c-2.6-0.2-6.1-0.4-8.6-0.7c-6.6-1.1-15.4-2.7-21.9-4.2l-2-0.5c-2.3-0.9-5.4-2-7.6-3.2
								c3.3,1.2,6.6,2.2,9.9,3.2c3.3,1,6.6,1.8,10,2.5c3.3,0.7,6.7,1.3,10.1,1.8C147.7,324.7,151,325.1,154.4,325.4"/>
							<path class="st3" d="M186.5,324.4c-3,0.3-6.8,0.7-9.8,1l-9.9,0.4c-1.1,0-2,0-3.1,0s-2,0-3.1-0.1c-1.1,0-2-0.1-3.1-0.1
								c-1.1-0.1-2-0.1-3.1-0.2c9.1,0.2,14.6,0.3,27.1-0.9C183,324.6,185,324.5,186.5,324.4"/>
							<path class="st3" d="M200.2,322.1c-2.7,0.5-6.2,1.3-8.7,1.7c-1.4,0.1-3.2,0.3-4.6,0.2c2.8-0.4,6.6-1,9.4-1.5
								C197.4,322.4,199,322.3,200.2,322.1"/>
							<path class="st4" d="M197.5,319.8c0-2.2,0-3.2,3.1-8.3c-12.2,1-18.1,1.4-31.7,1.7c2.5,1.1,4.9,1.9,7.4,2.8
								c2.5,0.7,4.9,1.5,7.3,2s4.7,1,7,1.3C192.9,319.6,195.2,319.8,197.5,319.8 M197.8,320.7c-2.9,0.1-5.7,0-8.6-0.3
								c-2.9-0.3-5.9-0.7-8.9-1.3c-3-0.6-6.1-1.4-9.1-2.3c-3.1-1-6.2-2.1-9.3-3.4c-3.8,0-9,0-12.8-0.1c4.4,1.8,8.6,3.4,13,4.7
								c4.3,1.3,8.5,2.2,12.8,2.9c4.2,0.6,8.3,1.1,12.5,1.2c4.1,0.1,8.1-0.1,12.1-0.5C199,321.3,198.3,321.1,197.8,320.7"/>
							<path class="st2" d="M226,314.2c-0.2,0.1-0.5,0.2-0.9,0.3c-0.3,0.1-0.5,0.2-0.9,0.3c-0.3,0.1-0.5,0.2-0.9,0.2
								c-0.3,0.1-0.5,0.1-0.9,0.2c-5.8,1.6-12.2,3.5-24.7,5.5c0.4,0.3,1.1,0.6,1.6,0.9c8-1.7,15.6-3.2,24.2-6.5l1.7-0.6L226,314.2
								 M219.5,315.7c-1.4,0.1-2.9,0.1-4.4,0c-1.5-0.1-3-0.3-4.6-0.6c-1.6-0.3-3.2-0.9-4.9-1.4s-3.4-1.3-5.1-2.1
								c-2.3,4.2-3.4,6.1-3.1,8.3C205.5,318.5,210.7,317.7,219.5,315.7"/>
							<path class="st5" d="M200.5,311.5c3-4.6,4.6-7,11.6-16c-17.2,0.4-22.3,0.5-34.2,0.6c2,1.7,3.9,3.4,6,4.9
								c1.9,1.5,3.8,2.9,5.8,4.2c1.9,1.3,3.7,2.5,5.5,3.5S198.8,310.6,200.5,311.5 M215.4,291.4c2-2.5,4.7-5.8,6.7-8.2
								c-30-0.1-40-0.1-58.1-0.6c0.7,0.9,1.5,1.6,2.2,2.5c0.7,0.7,1.5,1.6,2.2,2.3s1.5,1.5,2.2,2.2c0.7,0.7,1.5,1.5,2.2,2.1
								C187.2,291.9,193,291.9,215.4,291.4"/>
							<path class="st6" d="M224.5,308.9c-0.9-0.6-1.7-1.4-2.7-2.3c-1-0.9-1.9-1.9-3-3s-2.1-2.3-3.2-3.7c-1.2-1.4-2.3-2.8-3.5-4.4
								c-5.4,7-8.2,10.6-11.6,16C208.8,310.8,214.3,310.2,224.5,308.9 M233.8,307.8c-0.4-1-1.1-2.1-1.8-3.6
								c-0.7-1.5-1.6-3.3-2.6-5.3c-1-2-2-4.4-3.3-6.9c-1.3-2.6-2.6-5.4-4.1-8.6c-2,2.5-4.7,5.8-6.7,8.2c1.4,2,2.6,3.9,3.8,5.8
								c1.2,1.7,2.3,3.3,3.4,4.8c1.1,1.4,2,2.7,3,3.7c1,1.1,1.8,2,2.6,2.8C229.8,308.3,232.1,308,233.8,307.8"/>
							<path class="st7" d="M173.1,291.8c-4.9,7.9-9.1,14.7-11.1,21.5c-3.8,0-9,0-12.8-0.1c1.5-6.1,2.9-11.8,14.8-30.6
								c0.7,0.9,1.5,1.6,2.2,2.5c0.7,0.7,1.5,1.6,2.2,2.3s1.5,1.5,2.2,2.2C171.6,290.4,172.3,291,173.1,291.8"/>
							<path class="st7" d="M200.5,311.5c-12.2,1-18.1,1.4-31.7,1.7c2-5,3.2-7.8,9.1-17.1c2,1.7,3.9,3.4,6,4.9
								c1.9,1.5,3.8,2.9,5.8,4.2c1.9,1.3,3.7,2.5,5.5,3.5S198.8,310.6,200.5,311.5"/>
							<path class="st3" d="M219.5,315.7c-1.4,0.1-2.9,0.1-4.4,0c-1.5-0.1-3-0.3-4.6-0.6c-1.6-0.3-3.2-0.9-4.9-1.4s-3.4-1.3-5.1-2.1
								c8.3-0.7,13.8-1.3,24-2.5C221.6,312.5,220.1,314.2,219.5,315.7"/>
							<path class="st3" d="M227.7,313.4l-1.7,0.6c-0.2,0.1-0.5,0.2-0.9,0.3c-0.3,0.1-0.5,0.2-0.9,0.3c-0.3,0.1-0.5,0.2-0.9,0.2
								c-0.3,0.1-0.5,0.1-0.9,0.2c0.3-0.9,0.5-1.4,5.4-6.6c1.7-0.2,3.9-0.5,5.5-0.7C228.1,312.9,228.1,312.9,227.7,313.4
								L227.7,313.4"/>
							<path class="st4" d="M245.5,298.9c6.8-6.4,10.2-9.6,18.2-17.7c-4.8-0.9-7.4-1.3-17.7-1.9c0.2,2,0.3,4.1,0.4,5.9
								c0.1,1.8,0.1,3.6,0,5.2c0,1.6-0.1,3.2-0.3,4.6C246,296.5,245.8,297.7,245.5,298.9 M242.6,301.6c0.2-1.3,0.3-2.7,0.4-4.2
								c0.1-1.6,0-3.3-0.1-5.1c-0.1-1.9-0.3-3.9-0.6-6.1c-0.3-2.2-0.6-4.5-1.1-7c-3-0.1-6.9-0.2-9.9-0.3c1.1,3.3,2,6.3,2.9,9.2
								c0.9,2.8,1.5,5.2,2,7.6c0.5,2.2,1,4.2,1.3,5.9c0.3,1.7,0.4,3.1,0.5,4.3C239.3,304.5,241.7,303.3,242.6,301.6"/>
							<path class="st2" d="M246.1,304.4c0.2-0.1,0.5-0.3,0.7-0.4c0.2-0.1,0.5-0.3,0.7-0.5s0.5-0.3,0.7-0.5c0.2-0.2,0.5-0.3,0.7-0.5
								c-0.1-0.1-0.1-0.3-0.2-0.4c-1.2-0.3-1.9-0.5-6.4-0.3c-1.4,1.3-3.2,2.9-4.7,4.2c5-0.5,6-0.6,6.4-0.3l-0.1,0.1l0.4-0.2
								L246.1,304.4 M252.2,299.9c1.2-1.2,2.3-2.3,3.4-3.7c1.1-1.4,2.1-2.8,3.1-4.4s1.9-3.2,2.8-5c0.9-1.8,1.6-3.6,2.3-5.7
								c-6.2,6.2-10.3,10.3-18.2,17.7C249.7,299,251.4,299.1,252.2,299.9"/>
							<path class="st5" d="M263.7,281.3c8-8.3,12.5-12.9,21.8-23.7c-4.7-2-6.8-3-16.5-4.7c-0.1,2.8-0.3,5.4-0.6,7.9
								c-0.3,2.6-0.6,5-1.1,7.4c-0.4,2.3-1,4.7-1.5,6.8C265.1,277.3,264.5,279.3,263.7,281.3 M290,252.4c2.3-2.9,5.4-6.8,7.8-9.8
								c-4.1-2.9-8.2-6-28.8-9.4c0.1,1.2,0.1,2.2,0.2,3.3c0.1,1.1,0.1,2.2,0.1,3.3c0,1.1,0.1,2.1,0.1,3.2s0,2.1,0,3.2
								C277.2,247.7,284.7,249.2,290,252.4"/>
							<path class="st6" d="M270.4,284.9c1.6-1.9,3.1-3.9,4.5-6c1.4-2.1,2.8-4.3,4.1-6.6c1.3-2.2,2.5-4.7,3.6-7.1
								c1.2-2.5,2.1-5,3.2-7.7c-7.4,8.3-11.7,13.3-21.8,23.7C267.7,282.4,269.5,282.9,270.4,284.9 M269.3,288
								c3.1-2.9,6.1-6.1,8.7-9.4c2.8-3.4,5.3-6.9,7.7-10.8c2.3-3.8,4.6-7.8,6.6-12.1c2-4.3,3.7-8.6,5.3-13.2c-2.3,3-5.3,6.9-7.8,9.8
								c-1.2,3.3-2.5,6.5-3.9,9.5c-1.4,3.1-3,6-4.6,8.7s-3.4,5.4-5.2,8c-1.8,2.6-3.8,4.9-5.9,7.1C270,286.5,269.7,287.4,269.3,288"
								/>
							<path class="st7" d="M269.2,246.2c-8.6,10.6-14,16.8-27.9,33c-3-0.1-6.9-0.2-9.9-0.3c19.4-23,26.8-32,37.5-45.6
								c0.1,1.2,0.1,2.2,0.2,3.3c0.1,1.1,0.1,2.2,0.1,3.3c0,1.1,0.1,2.1,0.1,3.2C269.3,244.2,269.3,245.2,269.2,246.2"/>
							<path class="st7" d="M263.7,281.3c-4.8-0.9-7.4-1.3-17.7-1.9c10.1-11.4,14.2-16,22.9-26.4c-0.1,2.8-0.3,5.4-0.6,7.9
								c-0.3,2.6-0.6,5-1.1,7.4c-0.4,2.3-1,4.7-1.5,6.8C265.1,277.3,264.5,279.3,263.7,281.3"/>
							<path class="st3" d="M252.2,299.9c1.2-1.2,2.3-2.3,3.4-3.7c1.1-1.4,2.1-2.8,3.1-4.4s1.9-3.2,2.8-5c0.9-1.8,1.6-3.6,2.3-5.7
								c3.9,1.1,5.8,1.6,6.5,3.6C264,290.5,259.8,294.2,252.2,299.9"/>
							<path class="st3" d="M248.9,302.8c-0.9,0.5-1.9,1.2-2.8,1.6c0.2-0.1,0.5-0.3,0.7-0.4c0.2-0.1,0.5-0.3,0.7-0.5
								s0.5-0.3,0.7-0.5c0.2-0.2,0.5-0.3,0.7-0.5c5.2-3.6,11.2-7.8,21.1-16.4c-0.3,0.6-0.6,1.5-1.1,2
								C262.7,293.4,257.4,297.6,248.9,302.8"/>
							<path class="st4" d="M297.3,258.8l2.1-3c2.8-4.5,4.2-6.7,4.5-10.9c-1.5,2.9-3,5.8-4.7,8.5c-1.6,2.8-3.4,5.4-5.2,8.1
								c-1.8,2.7-3.7,5.2-5.7,7.7c-2,2.5-4.1,4.8-6.2,7.1C286.2,272.1,292.3,265.7,297.3,258.8 M278.6,279.9c2.6-2.7,5-5.3,7.4-8.2
								c2.3-2.9,4.6-5.9,6.7-9s4.2-6.3,6-9.7c1.9-3.3,3.6-6.7,5.2-10.2c-0.3-1.1-0.7-2.6-1.3-3.5c-1.7,4.7-3.7,9.2-5.9,13.5
								c-2.1,4.3-4.6,8.4-7.1,12.4c-2.6,3.9-5.3,7.7-8.3,11.2c-3,3.5-6.1,6.8-9.5,9.8C273.8,284.3,276.6,282,278.6,279.9"/>
							<path class="st2" d="M270,287.9c1.8-1.6,4.4-3.7,6.2-5.4l2.5-2.6c-2,1.9-4.8,4.4-6.8,6.2L270,287.9 M297.1,259l0.2-0.3
								c-5.2,6.8-8.2,10.6-15,17.6c-0.9,1-1.9,2.1-2.8,3C288.4,270.1,290.5,268,297.1,259"/>
							<path class="st5" d="M310.7,237.1c1.7-3.7,4.2-8.7,5.8-12.6l1.3-3.9c-1,2.7-2,5.2-3.1,7.9c-1.1,2.6-2.2,5.1-3.5,7.7
								c-1.3,2.6-2.6,5-3.9,7.5c-1.4,2.5-2.8,4.8-4.4,7.1C305.2,246.7,308.5,241.3,310.7,237.1 M320.5,213.7l2.8-9.2
								c0.3-1.8,0.9-4.3,1-6.1c-0.2,1.3-0.5,2.5-0.9,3.6c-0.3,1.2-0.6,2.5-1,3.6c-0.3,1.2-0.6,2.5-1,3.6c-0.3,1.2-0.7,2.3-1.1,3.6
								c-0.4,1.4-0.9,3.3-1.3,4.8L320.5,213.7"/>
							<path class="st7" d="M320.4,213c-3.7,8.7-7,16.2-16.5,30c-0.3-1.1-0.7-2.6-1.3-3.5c7.5-10.9,15.9-23.2,21.6-40.9
								c-0.2,1.3-0.5,2.5-0.9,3.6c-0.3,1.2-0.6,2.5-1,3.6c-0.3,1.2-0.6,2.5-1,3.6C321.1,210.5,320.8,211.7,320.4,213"/>
							<path class="st7" d="M302.8,250.7l-3.4,5c2.8-4.5,4.2-6.7,4.5-10.9c6.3-9.5,9.1-13.8,13.9-24.3c-1,2.7-2,5.2-3.1,7.9
								c-1.1,2.6-2.2,5.1-3.5,7.7c-1.3,2.6-2.6,5-3.9,7.5S304.4,248.4,302.8,250.7"/>
							<path class="st5" d="M214.6,318.2l1.6-0.5c-3,0.9-6.9,2-9.9,2.9c0.4-0.1,0.7-0.2,1.2-0.3c0.4-0.1,0.7-0.2,1.2-0.3
								c0.4-0.1,0.7-0.2,1.2-0.3c0.4-0.1,0.7-0.2,1.2-0.3L214.6,318.2"/>
							<path class="st7" d="M210.7,319.3l-2.7,0.7l-1.9,0.4c0.4-0.1,0.7-0.2,1.2-0.3c0.4-0.1,0.7-0.2,1.2-0.3
								c0.4-0.1,0.7-0.2,1.2-0.3C210,319.6,210.4,319.4,210.7,319.3"/>
							<path class="st5" d="M237,309.3c1.1-0.5,2.3-1.2,3.4-1.7c-1.1,0.3-1.2,0.3-4.2,1c0,0.1,0,0.3,0,0.4s0,0.2,0,0.3
								s0,0.2-0.1,0.2c0,0.1-0.1,0.1-0.1,0.1l0.4-0.2L237,309.3"/>
							<path class="st7" d="M236,309.7l-0.5,0.2c-0.6,0.3-1.6,0.7-2.2,1.1l-1.7,0.7c1.5-0.9,1.6-1,4.6-3.2c0,0.1,0,0.3,0,0.4
								c0,0.1,0,0.2,0,0.3c0,0.1,0,0.2-0.1,0.2C236.1,309.6,236.1,309.6,236,309.7"/>
						</g>
					</g>
				</g>
			</g>
		</g>
	</g>
</g>
<g>
	<g>
		<path class="st2" d="M15.1,455.9H0v-4.4h35.2v4.4h-15v46.7h-5.1V455.9L15.1,455.9z"/>
		<path class="st2" d="M41.7,447.7h4.6v23.9h0.1c2-4.1,6.2-7.2,11.6-7.2c10,0,12.7,6.7,12.7,15.9v22.4h-4.6v-22.4
			c0-6.5-1.2-12-8.9-12c-8.2,0-11.1,7.8-11.1,14.3v20h-4.6v-54.9H41.7z"/>
		<path class="st2" d="M107.5,501.5c-3.2,1.3-7.4,2-10.8,2c-12.4,0-17-8.4-17-19.6c0-11.4,6.3-19.6,15.8-19.6
			c10.6,0,14.9,8.5,14.9,18.6v2.3H84.7c0,7.9,4.2,14.3,12.3,14.3c3.3,0,8.3-1.4,10.5-2.8V501.5z M105.3,481.4c0-6.6-2.6-13-9.5-13
			c-6.8,0-11,6.8-11,13H105.3z"/>
		<path class="st2" d="M139.3,451.5h24.3v4.4h-19.3v18.3h18.4v4.4h-18.4v24.1h-5.1L139.3,451.5L139.3,451.5z"/>
		<path class="st2" d="M201.2,493.9c0,2.8,0,5.8,0.3,8.8h-4.4V496H197c-1.5,3.3-4.3,7.6-12.1,7.6c-9.2,0-12.7-6.2-12.7-14.3v-24h4.6
			V488c0,7.1,2.5,11.6,8.9,11.6c8.4,0,11.1-7.4,11.1-13.6v-20.7h4.6L201.2,493.9L201.2,493.9z"/>
		<path class="st2" d="M229,469.3h-8.5v24.2c0,3.3,1.2,6.2,5,6.2c1.7,0,2.9-0.4,4.2-0.9l0.3,3.8c-1.1,0.4-3.3,1-5.7,1
			c-8.2,0-8.5-5.7-8.5-12.4v-21.9h-7.4v-4h7.4v-9l4.6-1.6v10.6h8.5L229,469.3L229,469.3z"/>
		<path class="st2" d="M266.4,493.9c0,2.8,0,5.8,0.3,8.8h-4.4V496h-0.1c-1.5,3.3-4.3,7.6-12.1,7.6c-9.2,0-12.7-6.2-12.7-14.3v-24
			h4.6V488c0,7.1,2.5,11.6,8.9,11.6c8.4,0,11.1-7.4,11.1-13.6v-20.7h4.6v28.6H266.4z"/>
		<path class="st2" d="M278,473.7c0-4.1,0-5.7-0.3-8.4h4.6v7.2h0.1c1.7-4.1,4.8-8.1,9.6-8.1c1.1,0,2.4,0.2,3.2,0.4v4.8
			c-0.9-0.3-2.2-0.4-3.3-0.4c-7.4,0-9.3,8.2-9.3,14.9v18.5H278V473.7L278,473.7z"/>
		<path class="st2" d="M327.5,501.5c-3.2,1.3-7.4,2-10.8,2c-12.4,0-17-8.4-17-19.6c0-11.4,6.3-19.6,15.8-19.6
			c10.6,0,14.9,8.5,14.9,18.6v2.3h-25.6c0,7.9,4.2,14.3,12.3,14.3c3.3,0,8.3-1.4,10.5-2.8L327.5,501.5L327.5,501.5z M325.2,481.4
			c0-6.6-2.6-13-9.5-13c-6.8,0-11,6.8-11,13H325.2z"/>
	</g>
</g>
<g>
	<path class="st2" d="M79.1,521.8h12.2c8.4,0,16.2,2.8,16.2,12.6c0,6.6-3,10.4-9.3,11.6v0.1c6.5,1.2,10.8,5.4,10.8,12.2
		c0,11.1-9.1,14.6-19.7,14.6H79L79.1,521.8L79.1,521.8z M84.2,568.6h5.3c6.8,0,14.5-1.8,14.5-10c0-9.1-7.9-10-15.3-10h-4.4
		L84.2,568.6L84.2,568.6z M84.3,544.2H90c5.4,0,12.4-1.4,12.4-9.5c0-7.4-6.8-8.4-11.1-8.4h-7V544.2L84.3,544.2z"/>
	<path class="st2" d="M134.3,534.7c12.1,0,17.5,9.4,17.5,19.6s-5.4,19.6-17.5,19.6s-17.5-9.4-17.5-19.6
		C116.9,544.1,122.2,534.7,134.3,534.7z M134.3,570c8.1,0,12.4-7,12.4-15.6c0-8.7-4.3-15.6-12.4-15.6s-12.4,7-12.4,15.6
		S126.3,570,134.3,570z"/>
	<path class="st2" d="M182,567h-0.1c-2,4.4-7.3,6.9-11.9,6.9c-10.6,0-12.3-7.2-12.3-10.6c0-12.5,13.3-13.1,23-13.1h0.9v-1.9
		c0-6.4-2.3-9.6-8.5-9.6c-3.9,0-7.6,0.9-11,3.1v-4.4c2.8-1.4,7.7-2.5,11-2.5c9.2,0,13.1,4.1,13.1,13.9v16.5c0,3,0,5.3,0.4,7.9H182
		V567L182,567z M181.6,554.2h-1.3c-8,0-17.5,0.8-17.5,9c0,4.9,3.5,6.8,7.8,6.8c10.8,0,11.1-9.5,11.1-13.5L181.6,554.2L181.6,554.2z"
		/>
	<path class="st2" d="M197.2,544c0-4.1,0-5.7-0.3-8.4h4.6v7.2h0.1c1.7-4.1,4.8-8.1,9.6-8.1c1.1,0,2.4,0.2,3.2,0.4v4.8
		c-0.9-0.3-2.2-0.4-3.3-0.4c-7.4,0-9.3,8.2-9.3,14.9v18.5h-4.6V544L197.2,544z"/>
	<path class="st2" d="M251.2,573h-4.6v-6h-0.1c-2.5,4.7-6.3,6.8-11.6,6.8c-10.3,0-15.4-8.5-15.4-19.6c0-11.4,4.4-19.6,15.4-19.6
		c7.4,0,11,5.4,11.6,7.2h0.1v-23.9h4.6V573z M235.5,570c8.2,0,11.1-8.8,11.1-15.6s-2.8-15.6-11.1-15.6c-8.8,0-11.1,8.4-11.1,15.6
		C224.5,561.6,226.7,570,235.5,570z"/>
</g>
<g>
	<g>
		<g>
			<g>
				<path class="st7" d="M41.8,363.7h-6.7v-3.6h18.1v3.6h-6.7v19.7h-4.7L41.8,363.7L41.8,363.7z"/>
				<path class="st7" d="M55.7,358.3h4.5v10.2h0.1c1.2-1.6,3.1-2.7,5.4-2.7c4.1,0,5.9,2.9,5.9,6.8v10.9h-4.5v-9.3
					c0-2.1,0-4.9-2.9-4.9c-3.3,0-4,3.5-4,5.8v8.5h-4.5L55.7,358.3L55.7,358.3z"/>
				<path class="st7" d="M90.1,382.4c-1.6,0.9-3.5,1.4-6,1.4c-5.8,0-9-3.3-9-8.9c0-5,2.7-9.2,8-9.2c6.5,0,8.2,4.3,8.2,10.4H79.4
					c0.2,2.8,2.1,4.3,4.9,4.3c2.2,0,4.1-0.8,5.8-1.8L90.1,382.4L90.1,382.4z M87.1,373c-0.1-2.2-1.2-4.1-3.6-4.1s-3.8,1.8-4,4.1
					H87.1z"/>
				<path class="st7" d="M104.2,360h4.7v23.4h-4.7V360z"/>
				<path class="st7" d="M131,383c-1.8,0.4-3.5,0.7-5.3,0.7c-7.6,0-12.8-3.8-12.8-11.7c0-8,4.9-12.6,12.8-12.6
					c1.5,0,3.6,0.4,5.3,0.9l-0.4,4c-1.8-1.1-3.4-1.3-5-1.3c-4.8,0-7.9,3.6-7.9,8.5s2.9,8.3,8,8.3c1.9,0,4-0.4,5.2-0.9L131,383z"/>
				<path class="st7" d="M147,364.2c-1.5-0.6-3.2-1.1-4.8-1.1s-3.6,0.7-3.6,3.3c0,4.1,10.2,2.3,10.2,10.2c0,5.2-4.1,7-8.8,7
					c-2.6,0-3.6-0.4-6-0.9l0.5-4.2c1.6,0.8,3.4,1.4,5.3,1.4c1.8,0,4.1-0.9,4.1-3.1c0-4.5-10.2-2.6-10.2-10.3c0-5.3,4.1-7.2,8.2-7.2
					c2,0,3.9,0.2,5.6,0.8L147,364.2z"/>
				<path class="st7" d="M159.8,360h5.3l9.2,23.4h-5.2l-2-5.4h-9.5l-2,5.4h-4.8L159.8,360z M162.4,364.7L162.4,364.7l-3.4,9.6h6.8
					L162.4,364.7z"/>
				<path class="st7" d="M193.3,360h5.3l9.2,23.4h-5l-2-5.4h-9.5l-2,5.4h-4.8L193.3,360z M195.9,364.7L195.9,364.7l-3.4,9.6h6.8
					L195.9,364.7z"/>
				<path class="st7" d="M210.4,366.1h4.2v2.3h0.1c1.4-2,3.3-2.7,5.6-2.7c4.1,0,5.9,2.9,5.9,6.8v10.9h-4.5v-9.3c0-2.1,0-4.9-2.9-4.9
					c-3.3,0-4,3.5-4,5.8v8.5h-4.5L210.4,366.1L210.4,366.1z"/>
				<path class="st7" d="M231,366.1h4.2v2.3h0.1c1.4-2,3.3-2.7,5.6-2.7c4.1,0,5.9,2.9,5.9,6.8v10.9h-4.5v-9.3c0-2.1,0-4.9-2.9-4.9
					c-3.3,0-4,3.5-4,5.8v8.5H231V366.1L231,366.1z"/>
				<path class="st7" d="M267.4,383.4h-4.2v-2.3H263c-1.4,1.6-3.3,2.7-5.6,2.7c-4.1,0-5.9-2.9-5.9-6.8v-10.9h4.5v9.3
					c0,2.1,0,4.9,2.9,4.9c3.3,0,4-3.5,4-5.8V366h4.5V383.4L267.4,383.4z"/>
				<path class="st7" d="M272.8,367.1c1.8-0.8,4.1-1.3,6-1.3c5.3,0,7.4,2.2,7.4,7.3v2.2c0,1.8,0,3.1,0.1,4.3c0,1.3,0.1,2.5,0.2,3.9
					h-4c-0.1-0.9-0.1-2-0.2-2.6h-0.1c-1.1,1.9-3.3,2.9-5.3,2.9c-3.1,0-6-1.9-6-5.2c0-2.6,1.3-4.1,2.9-4.9c1.8-0.8,3.9-1.1,5.8-1.1
					h2.5c0-2.8-1.3-3.8-3.9-3.8c-1.9,0-3.9,0.7-5.3,1.9L272.8,367.1z M277.9,380.6c1.4,0,2.5-0.6,3.2-1.5s0.9-2.2,0.9-3.5h-1.9
					c-2,0-5,0.4-5,2.9C275.1,379.9,276.4,380.6,277.9,380.6z"/>
				<path class="st7" d="M290.7,358.3h4.5v25.1h-4.5V358.3z"/>
			</g>
		</g>
	</g>
</g>
<g>
	<path class="st7" d="M53.4,424.8c-1.8,0.4-3.5,0.7-5.3,0.7c-7.6,0-12.8-3.8-12.8-11.7s4.9-12.6,12.8-12.6c1.5,0,3.6,0.4,5.3,0.9
		l-0.4,4c-1.8-1.1-3.4-1.3-5-1.3c-4.8,0-7.9,3.6-7.9,8.5c0,4.8,2.9,8.3,8,8.3c1.9,0,4-0.4,5.2-0.9L53.4,424.8z"/>
	<path class="st7" d="M64.4,407.5c5.2,0,9,3.4,9,9.2c0,4.9-3.3,8.9-9,8.9s-9-4-9-8.9C55.4,410.9,59.2,407.5,64.4,407.5z M64.4,422.1
		c3.4,0,4.3-3.1,4.3-6c0-2.7-1.4-5.2-4.3-5.2s-4.3,2.6-4.3,5.2C60.1,418.9,61,422.1,64.4,422.1z"/>
	<path class="st7" d="M77,407.9h4.2v2.3h0.1c1.4-2,3.3-2.7,5.6-2.7c4.1,0,5.9,2.9,5.9,6.8v11h-4.5V416c0-2.1,0-4.9-2.9-4.9
		c-3.3,0-4,3.5-4,5.8v8.5H77V407.9L77,407.9z"/>
	<path class="st7" d="M99.2,411.2h-3.3v-3.3h3.3v-2.5c0-3.4,2-5.9,5.5-5.9c1.2,0,2.5,0.1,3.3,0.4l-0.4,3.8c-0.4-0.2-0.9-0.6-2-0.6
		c-1.5,0-2,1.3-2,2.7v2.1h3.9v3.3h-3.9v14h-4.5L99.2,411.2L99.2,411.2z"/>
	<path class="st7" d="M124.4,424.2c-1.6,0.9-3.5,1.4-6,1.4c-5.8,0-9-3.3-9-8.9c0-5,2.7-9.2,8-9.2c6.5,0,8.2,4.3,8.2,10.4h-11.9
		c0.2,2.8,2.1,4.3,4.9,4.3c2.2,0,4.1-0.8,5.8-1.8V424.2L124.4,424.2z M121.3,414.8c-0.1-2.2-1.2-4.1-3.6-4.1s-3.8,1.8-4,4.1H121.3z"
		/>
	<path class="st7" d="M129.3,407.9h4v3.9h0.1c0.2-1.6,2-4.3,4.7-4.3c0.5,0,0.9,0,1.4,0.1v4.6c-0.4-0.2-1.2-0.4-2-0.4
		c-3.6,0-3.6,4.6-3.6,7v6.3h-4.5L129.3,407.9L129.3,407.9z"/>
	<path class="st7" d="M156.1,424.2c-1.6,0.9-3.5,1.4-6,1.4c-5.8,0-9-3.3-9-8.9c0-5,2.7-9.2,8-9.2c6.5,0,8.2,4.3,8.2,10.4h-11.9
		c0.2,2.8,2.1,4.3,4.9,4.3c2.2,0,4.1-0.8,5.8-1.8V424.2L156.1,424.2z M153,414.8c-0.1-2.2-1.2-4.1-3.6-4.1c-2.5,0-3.8,1.8-4,4.1H153
		z"/>
	<path class="st7" d="M160.9,407.9h4.2v2.3h0.1c1.4-2,3.3-2.7,5.6-2.7c4.1,0,5.9,2.9,5.9,6.8v11h-4.5V416c0-2.1,0-4.9-2.9-4.9
		c-3.3,0-4,3.5-4,5.8v8.5h-4.5L160.9,407.9L160.9,407.9z"/>
	<path class="st7" d="M192.6,411.6c-0.8-0.4-1.6-0.6-3.1-0.6c-2.8,0-4.6,2.2-4.6,5.5c0,3.2,1.5,5.6,4.7,5.6c1.3,0,2.7-0.5,3.4-0.8
		l0.2,3.8c-1.3,0.4-2.7,0.6-4.5,0.6c-5.6,0-8.6-3.9-8.6-9.2c0-5,2.9-8.9,8.3-8.9c1.8,0,3.2,0.2,4.3,0.6L192.6,411.6z"/>
	<path class="st7" d="M210.1,424.2c-1.6,0.9-3.5,1.4-6,1.4c-5.8,0-9-3.3-9-8.9c0-5,2.7-9.2,8-9.2c6.5,0,8.2,4.3,8.2,10.4h-11.9
		c0.2,2.8,2.1,4.3,4.9,4.3c2.2,0,4.1-0.8,5.8-1.8V424.2L210.1,424.2z M207,414.8c-0.1-2.2-1.2-4.1-3.6-4.1c-2.5,0-3.8,1.8-4,4.1H207
		z"/>
	<path class="st7" d="M223.2,425.1v-3.8c2.2-2.1,10.1-8.8,10.1-13c0-2.1-1.9-3.2-3.9-3.2s-3.9,0.8-5.4,1.9l-0.4-3.9
		c2.1-1.1,4.6-1.6,6.9-1.6c4.5,0,7.4,2.2,7.4,6.8c0,4.9-5,9.5-8.8,13.3h9.5v3.6L223.2,425.1L223.2,425.1z"/>
	<path class="st7" d="M241.8,413.5c0-5.9,1.8-12.2,8.1-12.2c6.8,0,8.2,6.7,8.2,12.2s-1.4,12.1-8.2,12.1
		C242.6,425.6,241.8,418.4,241.8,413.5z M253.3,413.5c0-3.1,0-8.7-3.5-8.7c-3.4,0-3.4,5.6-3.4,8.7c0,2.9,0,8.6,3.4,8.6
		C253.4,422.1,253.3,416.4,253.3,413.5z"/>
	<path class="st7" d="M268.6,401.8h4.1v23.4H268v-18.1l-4,3.2l-2.3-3.1L268.6,401.8z"/>
	<path class="st7" d="M281.1,420.9c1.3,0.6,2.5,0.9,4.1,0.9c4.1,0,5.4-3.8,5.5-7.3l-0.1-0.1c-1.1,1.6-2.6,2.3-4.6,2.3
		c-4.5,0-6.8-2.8-6.8-7.2c0-5,2.5-8.5,7.7-8.5c6.5,0,8,5.4,8,10.9c0,6.3-2,13.3-9.6,13.3c-1.8,0-3.3-0.2-4.9-0.8L281.1,420.9z
		 M290.4,408.9c0-2.2-0.9-4.1-3.3-4.1c-2.2,0-3.1,2.1-3.1,4.2c0,2.2,0.9,4.3,3.2,4.3C289.4,413.4,290.4,411.3,290.4,408.9z"/>
</g>
</svg>
