<svg width="209" height="12" viewBox="0 0 209 12" fill="none" xmlns="http://www.w3.org/2000/svg">
<g clip-path="url(#clip0)">
<path d="M33.4001 2.5H31.1001V1.8H36.5001V2.5H34.2001V9.7H33.4001V2.5Z" fill="#1D0E46"/>
<path d="M37.5 1.2H38.2V4.9C38.5 4.3 39.2 3.8 40 3.8C41.5 3.8 42 4.8 42 6.3V9.7H41.3V6.2C41.3 5.2 41.1 4.3 39.9 4.3C38.6 4.3 38.2 5.5 38.2 6.5V9.6H37.5V1.2Z" fill="#1D0E46"/>
<path d="M47.6999 9.5C47.1999 9.7 46.5999 9.8 45.9999 9.8C44.0999 9.8 43.3999 8.5 43.3999 6.8C43.3999 5 44.3999 3.8 45.7999 3.8C47.3999 3.8 48.0999 5.1 48.0999 6.7V7H44.1999C44.1999 8.2 44.8999 9.2 46.0999 9.2C46.5999 9.2 47.3999 9 47.6999 8.8V9.5ZM47.2999 6.4C47.2999 5.4 46.8999 4.4 45.7999 4.4C44.6999 4.4 44.0999 5.5 44.0999 6.4H47.2999Z" fill="#1D0E46"/> 
<path d="M58.1 2.7C57.6 2.4 56.9 2.4 56.3 2.4C54.3 2.4 53.1 3.8 53.1 5.8C53.1 7.8 54.2 9.2 56.3 9.2C56.8 9.2 57.6 9.1 58.1 8.9V9.6C57.7 9.9 56.8 9.9 56.3 9.9C53.8 9.9 52.3 8.3 52.3 5.8C52.3 3.4 53.8 1.7 56.3 1.7C56.8 1.7 57.7 1.8 58.1 2V2.7Z" fill="#1D0E46"/>
<path d="M60.1001 1.2H60.8001V4.9C61.1001 4.3 61.8001 3.8 62.6001 3.8C64.1001 3.8 64.6001 4.8 64.6001 6.3V9.7H63.9001V6.2C63.9001 5.2 63.7001 4.3 62.5001 4.3C61.2001 4.3 60.8001 5.5 60.8001 6.5V9.6H60.1001V1.2Z" fill="#1D0E46"/>
<path d="M69.6999 8.8C69.3999 9.5 68.5999 9.9 67.7999 9.9C66.1999 9.9 65.8999 8.8 65.8999 8.3C65.8999 6.4 67.9999 6.3 69.4999 6.3H69.5999V5.9C69.5999 4.9 69.1999 4.4 68.2999 4.4C67.6999 4.4 67.0999 4.5 66.5999 4.9V4.2C66.9999 4 67.7999 3.8 68.2999 3.8C69.6999 3.8 70.2999 4.4 70.2999 5.9V8.4C70.2999 8.9 70.2999 9.2 70.3999 9.6H69.6999V8.8ZM69.6999 6.8H69.4999C68.2999 6.8 66.7999 6.9 66.7999 8.2C66.7999 9 67.2999 9.2 67.9999 9.2C69.6999 9.2 69.6999 7.7 69.6999 7.1V6.8Z" fill="#1D0E46"/>
<path d="M72.1001 5.2C72.1001 4.6 72.1001 4.3 72.1001 3.9H72.8001V5C73.1001 4.4 73.5001 3.8 74.3001 3.8C74.5001 3.8 74.7001 3.8 74.8001 3.9V4.6C74.7001 4.6 74.5001 4.5 74.3001 4.5C73.2001 4.5 72.9001 5.8 72.9001 6.8V9.6H72.2001V5.2H72.1001Z" fill="#1D0E46"/>
<path d="M78.3 4.5H77V8.2C77 8.7 77.2 9.2 77.8 9.2C78.1 9.2 78.3 9.1 78.5 9.1V9.7C78.3 9.8 78 9.9 77.6 9.9C76.3 9.9 76.3 9 76.3 8V4.5H75.2V3.9H76.3V2.5L77 2.3V3.9H78.3V4.5Z" fill="#1D0E46"/>
<path d="M83.5 9.5C83 9.7 82.4 9.8 81.8 9.8C79.9 9.8 79.2 8.5 79.2 6.8C79.2 5 80.2 3.8 81.6 3.8C83.2 3.8 83.9 5.1 83.9 6.7V7H80C80 8.2 80.7 9.2 81.9 9.2C82.4 9.2 83.2 9 83.5 8.8V9.5ZM83.1 6.4C83.1 5.4 82.7 4.4 81.6 4.4C80.5 4.4 79.9 5.5 79.9 6.4H83.1Z" fill="#1D0E46"/>
<path d="M85.3 5.2C85.3 4.6 85.3 4.3 85.3 3.9H86V5C86.3 4.4 86.7 3.8 87.5 3.8C87.7 3.8 87.9 3.8 88 3.9V4.6C87.9 4.6 87.7 4.5 87.5 4.5C86.4 4.5 86.1 5.8 86.1 6.8V9.6H85.4V5.2H85.3Z" fill="#1D0E46"/>
<path d="M92.6999 9.5C92.1999 9.7 91.5999 9.8 90.9999 9.8C89.0999 9.8 88.3999 8.5 88.3999 6.8C88.3999 5 89.3999 3.8 90.7999 3.8C92.3999 3.8 93.0999 5.1 93.0999 6.7V7H89.1999C89.1999 8.2 89.8999 9.2 91.0999 9.2C91.5999 9.2 92.3999 9 92.6999 8.8V9.5ZM92.2999 6.4C92.2999 5.4 91.8999 4.4 90.7999 4.4C89.6999 4.4 89.0999 5.5 89.0999 6.4H92.2999Z" fill="#1D0E46"/>
<path d="M99.0001 9.7H98.3001V8.8C97.9001 9.5 97.3001 9.9 96.5001 9.9C94.9001 9.9 94.1001 8.6 94.1001 6.9C94.1001 5.1 94.8001 3.9 96.5001 3.9C97.6001 3.9 98.2001 4.7 98.3001 5V1.2H99.0001V9.7ZM96.6001 9.2C97.9001 9.2 98.3001 7.8 98.3001 6.8C98.3001 5.7 97.9001 4.4 96.6001 4.4C95.2001 4.4 94.9001 5.7 94.9001 6.8C94.9001 7.9 95.3001 9.2 96.6001 9.2Z" fill="#1D0E46"/>
<path d="M110.1 3.3C109.5 3 108.7 2.9 108.1 2.9C106.3 2.9 105.2 4.1 105.2 5.8C105.2 7.4 106.2 8.6 107.9 8.6C108.3 8.6 108.7 8.6 108.9 8.5V6.4H107.2V5.2H110.4V9.5C109.6 9.7 108.7 9.9 107.8 9.9C105.2 9.9 103.5 8.6 103.5 6C103.5 3.3 105.2 1.8 107.8 1.8C108.7 1.8 109.4 1.9 110.1 2.1V3.3Z" fill="#1D0E46"/>
<path d="M114.6 3.7C116.3 3.7 117.7 4.9 117.7 6.8C117.7 8.5 116.6 9.8 114.6 9.8C112.7 9.8 111.6 8.5 111.6 6.8C111.6 4.9 112.9 3.7 114.6 3.7ZM114.6 8.6C115.8 8.6 116.1 7.6 116.1 6.6C116.1 5.7 115.6 4.9 114.6 4.9C113.6 4.9 113.1 5.8 113.1 6.6C113.2 7.6 113.5 8.6 114.6 8.6Z" fill="#1D0E46"/>
<path d="M118.2 3.89999H119.9L121.3 8.09999L122.7 3.89999H124.2L122.1 9.69999H120.4L118.2 3.89999Z" fill="#1D0E46"/>
<path d="M129.8 9.4C129.2 9.7 128.6 9.9 127.8 9.9C125.9 9.9 124.8 8.8 124.8 6.9C124.8 5.2 125.7 3.8 127.5 3.8C129.7 3.8 130.3 5.3 130.3 7.3H126.3C126.4 8.2 127 8.8 128 8.8C128.7 8.8 129.4 8.5 129.9 8.2V9.4H129.8ZM128.8 6.2C128.8 5.5 128.4 4.8 127.6 4.8C126.8 4.8 126.3 5.4 126.3 6.2H128.8Z" fill="#1D0E46"/>
<path d="M131.5 3.9H132.8V5.2C132.9 4.7 133.5 3.7 134.4 3.7C134.5 3.7 134.7 3.7 134.9 3.7V5.2C134.8 5.1 134.5 5.1 134.2 5.1C133 5.1 133 6.6 133 7.5V9.6H131.5V3.9Z" fill="#1D0E46"/>
<path d="M136.1 3.9H137.5V4.7C138 4 138.6 3.8 139.4 3.8C140.8 3.8 141.4 4.8 141.4 6.1V9.8H139.9V6.6C139.9 5.9 139.9 4.9 138.9 4.9C137.8 4.9 137.6 6.1 137.6 6.8V9.6H136.1V3.9Z" fill="#1D0E46"/>
<path d="M143.2 4.2C143.8 3.9 144.6 3.8 145.2 3.8C147 3.8 147.7 4.5 147.7 6.3V7C147.7 7.6 147.7 8 147.7 8.5C147.7 8.9 147.7 9.3 147.8 9.8H146.5C146.4 9.5 146.4 9.1 146.4 8.9C146 9.5 145.3 9.9 144.6 9.9C143.6 9.9 142.6 9.3 142.6 8.2C142.6 7.3 143 6.8 143.6 6.5C144.2 6.2 144.9 6.2 145.6 6.2H146.4C146.4 5.3 146 4.9 145.1 4.9C144.5 4.9 143.8 5.1 143.3 5.5L143.2 4.2ZM145 8.7C145.5 8.7 145.8 8.5 146.1 8.2C146.3 7.9 146.4 7.5 146.4 7H145.7C145 7 144 7.1 144 8C144 8.5 144.5 8.7 145 8.7Z" fill="#1D0E46"/>
<path d="M149.3 3.9H150.7V4.7C151.2 4 151.8 3.8 152.6 3.8C154 3.8 154.6 4.8 154.6 6.1V9.8H153.1V6.6C153.1 5.9 153.1 4.9 152.1 4.9C151 4.9 150.8 6.1 150.8 6.8V9.6H149.3V3.9Z" fill="#1D0E46"/>
<path d="M159.9 5.1C159.6 5 159.3 4.9 158.9 4.9C158 4.9 157.4 5.6 157.4 6.7C157.4 7.8 157.9 8.6 159 8.6C159.4 8.6 159.9 8.4 160.2 8.3L160.3 9.6C159.9 9.7 159.4 9.8 158.8 9.8C156.9 9.8 155.9 8.5 155.9 6.7C155.9 5 156.9 3.7 158.7 3.7C159.3 3.7 159.8 3.8 160.2 3.9L159.9 5.1Z" fill="#1D0E46"/>
<path d="M165.9 9.4C165.3 9.7 164.7 9.9 163.9 9.9C162 9.9 160.9 8.8 160.9 6.9C160.9 5.2 161.8 3.8 163.6 3.8C165.8 3.8 166.4 5.3 166.4 7.3H162.4C162.5 8.2 163.1 8.8 164.1 8.8C164.8 8.8 165.5 8.5 166 8.2V9.4H165.9ZM164.8 6.2C164.8 5.5 164.4 4.8 163.6 4.8C162.8 4.8 162.3 5.4 162.3 6.2H164.8Z" fill="#1D0E46"/>
<path d="M171.5 1.8H170.7V9.7H171.5V1.8Z" fill="#1D0E46"/>
<path d="M173.2 5.3C173.2 4.9 173.2 4.4 173.2 3.9H173.9V4.9C174.1 4.4 174.6 3.7 175.8 3.7C177.2 3.7 177.8 4.7 177.8 5.9V9.6H177V6.2C177 5.1 176.6 4.4 175.6 4.4C174.3 4.4 173.9 5.5 173.9 6.5V9.7H173.2V5.3Z" fill="#1D0E46"/>
<path d="M179.1 8.8C179.5 9 180 9.2 180.6 9.2C181.3 9.2 181.9 8.8 181.9 8.2C181.9 6.8 179.1 7 179.1 5.4C179.1 4.3 180 3.8 181 3.8C181.3 3.8 181.9 3.9 182.4 4.1L182.3 4.7C181.9 4.5 181.4 4.4 181 4.4C180.3 4.4 179.8 4.6 179.8 5.4C179.8 6.5 182.6 6.3 182.6 8.2C182.6 9.4 181.5 9.8 180.6 9.8C180 9.8 179.5 9.7 179 9.5L179.1 8.8Z" fill="#1D0E46"/>
<path d="M186.4 4.5H185.1V8.2C185.1 8.7 185.3 9.2 185.9 9.2C186.2 9.2 186.4 9.1 186.6 9.1V9.7C186.4 9.8 186.1 9.9 185.7 9.9C184.4 9.9 184.4 9 184.4 8V4.5H183.3V3.9H184.4V2.5L185.1 2.3V3.9H186.4V4.5Z" fill="#1D0E46"/>
<path d="M188.4 2.39999H187.7V1.39999H188.4V2.39999ZM187.7 3.89999H188.4V9.69999H187.7V3.89999Z" fill="#1D0E46"/>
<path d="M192.7 4.5H191.4V8.2C191.4 8.7 191.6 9.2 192.2 9.2C192.5 9.2 192.7 9.1 192.9 9.1V9.7C192.7 9.8 192.4 9.9 192 9.9C190.7 9.9 190.7 9 190.7 8V4.5H189.6V3.9H190.7V2.5L191.4 2.3V3.9H192.7V4.5Z" fill="#1D0E46"/>
<path d="M198.5 8.29999C198.5 8.69999 198.5 9.19999 198.5 9.69999H197.8V8.69999C197.6 9.19999 197.1 9.89999 195.9 9.89999C194.5 9.89999 193.9 8.89999 193.9 7.69999V3.89999H194.6V7.39999C194.6 8.49999 195 9.19999 196 9.19999C197.3 9.19999 197.7 8.09999 197.7 7.09999V3.89999H198.4V8.29999H198.5Z" fill="#1D0E46"/>
<path d="M202.8 4.5H201.5V8.2C201.5 8.7 201.7 9.2 202.3 9.2C202.6 9.2 202.8 9.1 203 9.1V9.7C202.8 9.8 202.5 9.9 202.1 9.9C200.8 9.9 200.8 9 200.8 8V4.5H199.7V3.9H200.8V2.5L201.5 2.3V3.9H202.8V4.5Z" fill="#1D0E46"/>
<path d="M207.9 9.5C207.4 9.7 206.8 9.8 206.2 9.8C204.3 9.8 203.6 8.5 203.6 6.8C203.6 5 204.6 3.8 206 3.8C207.6 3.8 208.3 5.1 208.3 6.7V7H204.4C204.4 8.2 205.1 9.2 206.3 9.2C206.8 9.2 207.6 9 207.9 8.8V9.5ZM207.5 6.4C207.5 5.4 207.1 4.4 206 4.4C204.9 4.4 204.3 5.5 204.3 6.4H207.5Z" fill="#1D0E46"/>
<path d="M27.3 0.600006V10.7" stroke="#0080C9" stroke-width="0.4522" stroke-miterlimit="10"/>
<path d="M2.4 2.5H0V9.3H2.4V2.5Z" fill="#1D0E46"/>
<path d="M8.8001 4.4C8.3001 4.2 7.9001 4 7.4001 4C6.4001 4 5.6001 4.7 5.6001 5.9C5.6001 7 6.5001 7.7 7.5001 7.7C8.0001 7.7 8.6001 7.6 9.0001 7.4V9.1C8.4001 9.3 7.7001 9.4 7.1001 9.4C4.9001 9.4 3.1001 8.1 3.1001 5.8C3.1001 3.5 4.8001 2.2 7.1001 2.2C7.8001 2.2 8.4001 2.3 9.0001 2.6L8.8001 4.4Z" fill="#1D0E46"/>
<path d="M10 7.39999C10.5 7.59999 11.4 7.89999 12.2 7.89999C12.7 7.89999 13.2 7.79999 13.2 7.39999C13.2 6.19999 9.90005 7.09999 9.90005 4.59999C9.90005 2.99999 11.4 2.39999 12.8 2.39999C13.6 2.39999 14.4 2.49999 15.2 2.79999L15 4.39999C14.5 4.09999 13.8 3.89999 13.2 3.89999C12.6 3.89999 12 3.99999 12 4.29999C12 5.39999 15.5 4.49999 15.5 7.09999C15.5 8.89999 13.9 9.39999 12.3 9.39999C11.2 9.39999 10.5 9.29999 9.80005 9.09999L10 7.39999Z" fill="#1D0E46"/>
<path d="M21.0001 9.3C21.0001 8.9 20.9001 8.6 20.9001 8.2C20.4001 9.1 19.7001 9.4 18.7001 9.4C17.4001 9.4 16.1001 8.7 16.1001 7.3C16.1001 5.2 18.4001 5 19.6001 5C20.0001 5 20.4001 5 20.7001 5.1C20.7001 4.2 20.0001 3.9 19.1001 3.9C18.3001 3.9 17.6001 4 16.9001 4.4V2.8C17.7001 2.5 18.6001 2.3 19.6001 2.3C21.3001 2.3 22.8001 3 22.8001 5.1V7.6C22.8001 8.1 22.8001 8.7 22.9001 9.2H21.0001V9.3ZM19.4001 7.9C20.3001 7.9 20.9001 7.1 20.9001 6.3C20.6001 6.3 20.3001 6.3 19.9001 6.3C19.1001 6.3 18.5001 6.5 18.5001 7.2C18.4001 7.6 18.8001 7.9 19.4001 7.9Z" fill="#1D0E46"/>
<path d="M2.4 1.4L1.2 0.2L0 1.4V-1H2.4V1.4Z" fill="#0080C9"/>
</g>
<defs>
<clipPath id="clip0">
<rect width="208.3" height="11.7" fill="white"/>
</clipPath>
</defs>
</svg>
